<svg version="1.1" xmlns="http://www.w3.org/2000/svg" xmlns:xlink="http://www.w3.org/1999/xlink" xmlns:a="http://ns.adobe.com/AdobeSVGViewerExtensions/3.0/" x="0px" y="0px" width="249.9px" height="41.2px" viewBox="0 0 249.9 41.2" style="enable-background:new 0 0 249.9 41.2;" xml:space="preserve">
<style type="text/css">
	.st0{fill-rule:evenodd;clip-rule:evenodd;fill:#FF006E;}
	.st1{fill-rule:evenodd;clip-rule:evenodd;fill:#03368F;}
</style>
<defs>
</defs>
<g>
	<path class="st0" d="M16.8,13.6c0.9,0.3,1.7,0.5,2.6,0.8c1,0.3,0.9,0.3,1.1,1.3c0.2,0.9,0.4,1.7,0.5,2.6l0,0.2l0-0.2   c0.9-4,0.3-3.4,4.2-4.6C22.5,14.1,19.6,14.1,16.8,13.6z"/>
	<path class="st0" d="M27.9,17.4L26.7,15c0.1,1.6,1,3.6-0.9,4l-3.5,1.2c1.5-0.1,2.9-0.5,3.5-0.2c0.7,0.4,0.3,1.1,0.1,1.6l-3.1,7.1   c2-3.6,3.7-6.3,6.1-8.7c1-0.9,2.2-1.6,3.5-2.6c-1.1,0.2-1.3,0.3-2.4,0.5C29.4,18.2,28.2,18.1,27.9,17.4z"/>
	<path class="st0" d="M12.6,13.2c1,0.1,1.9,0.2,2.9,0.2c-1.9-0.4-3.7-0.9-5-1.8c0.1,0.3,0.3,0.6,0.4,0.9c0.2,0.3,0.2,0.3,0,0.6   c-0.4,0.8-0.9,1.6-1.3,2.4l2-2C12,13.1,12,13.1,12.6,13.2z"/>
	<path class="st0" d="M16.6,20.1c0.6-0.4,2,0,3.5,0.2L16.6,19c-1.9-0.4-1-2.4-0.9-4l-1.2,2.4c-0.3,0.7-1.5,0.8-2.2,0.7   c-1.1-0.2-1.3-0.3-2.4-0.5c1.3,1,2.5,1.6,3.5,2.6c2.5,2.3,4.2,5.1,6.1,8.7l-3.1-7.1C16.3,21.2,15.8,20.5,16.6,20.1z"/>
	<path class="st0" d="M31.3,12.4c0.1-0.2,0.2-0.5,0.4-0.7c-1.4,1-3.2,1.4-5,1.8c0.9-0.1,1.4-0.1,2.3-0.2c0.6-0.1,1.1-0.1,1.5,0.3   l2.1,2.1c-0.4-0.8-0.8-1.5-1.2-2.3C31,12.8,31,12.9,31.3,12.4z"/>
	<path class="st0" d="M21.1,0C14.5,0,0.6,0.8,0,9.8C0.5,21.1,8.6,35,18.5,40.7c0.9,0.3,1.8,0.5,2.7,0.5c0.9,0,1.8-0.2,2.7-0.5   c9.9-5.7,18-19.6,18.5-30.9C41.7,0.6,27.9,0,21.1,0z M33.5,18.2c-4.4,4.9-7.9,8.7-12.4,13.5l0,0.1L21,31.8L8.5,18.1   c-1-1.1-1.9-2.5-0.9-3.7c1-1.2,1.7-2.1,2.7-3.3L17,9.4h4.1h4.1l6.6,1.7l2.7,3.3C35.8,15.9,34.9,16.7,33.5,18.2z"/>
</g>
<path class="st1" d="M191.1,9.5c2.5,0,4.3,0.3,5.6,1.1c0.7,0.4,1.2,0.9,1.5,1.6c0.3,0.6,0.5,1.4,0.5,2.4c0,1.4-0.5,2.5-1.6,3.4  c-0.6,0.5-1.3,1-2,1.3c-0.1,0-0.2,0.1-0.2,0.2c0,0.2,0.2,0.2,0.3,0.3c1.2,0.3,2.3,0.8,3.1,1.5c1.2,1,1.8,2.3,1.8,4  c0,1.2-0.3,2.2-0.8,3.1c-0.5,0.8-1.3,1.6-2.2,2.1c-0.8,0.5-1.8,0.8-2.9,1c-0.8,0.2-1.7,0.2-2.7,0.2c-0.5,0-1,0-1.4,0  c-2.4,0-4.6,0-6.2,0c-0.9,0-1.7-0.2-2.2-0.2l0,0c0,0-0.1,0-0.1,0c-0.2-0.1-0.3-0.3-0.3-0.5c0-0.2,0.2-0.4,0.4-0.5c0.1,0,0.3,0,0.4,0  c0.9-0.1,1.5-0.3,1.8-0.6c0.3-0.4,0.5-1.6,0.5-3.5l0.1-11.4c0-1.9-0.2-3-0.4-3.5c-0.2-0.4-0.7-0.6-1.6-0.7c-0.1,0-0.2,0-0.4,0  c-0.2-0.1-0.4-0.3-0.4-0.5c0-0.3,0.2-0.5,0.4-0.5c0,0,0.1,0,0.1,0h0c0.4-0.1,1-0.1,1.7-0.2c1.5,0,3.6,0,6,0  C190.2,9.5,190.6,9.5,191.1,9.5z M191.1,30.3c1-0.1,2-0.4,2.7-1c0.9-0.8,1.4-2.1,1.4-3.7c0-1.7-0.5-2.8-1.6-3.7  c-0.6-0.5-1.4-0.8-2.3-1c-0.5-0.1-1.2-0.2-1.6,0c-0.4,0.1-0.7,0.5-0.8,0.9c-0.1,0.2,0,0.5,0,0.7l0,4.1c0,1.3,0.1,2.2,0.2,2.6  c0.1,0.4,0.3,0.8,0.7,0.9C190,30.3,190.6,30.3,191.1,30.3z M190.8,19.2c0.8-0.2,1.5-0.4,2-0.9c0.8-0.7,1.2-1.8,1.2-3.3  c0-1.5-0.4-2.5-1.2-3.2c-0.5-0.4-1.2-0.7-1.9-0.9c-0.5-0.1-0.9-0.1-1.4-0.1c-0.8,0.1-0.8,0.4-0.8,1.2v5.4c0,0.3,0,0.6,0.1,0.8  c0.1,0.4,0.5,0.7,0.9,0.9C190,19.3,190.5,19.2,190.8,19.2z M85.4,17.3c0-0.1,0-0.3,0-0.4c0-0.1,0.1-0.2,0.2-0.2c0.1,0,0.3,0,0.4-0.1  c0.1,0,0.3,0,0.4,0c0.9-0.1,1.6-0.2,2.1-0.3c0.2,0,0.4-0.1,0.6-0.1c0.2,0,0.3,0.1,0.4,0.3c0,0.1,0,0.2,0,0.3c0,3.9,0,7.8,0,11.7  c0,0.9,0.2,1.9,1.3,2h0c0,0,0.1,0,0.1,0h0v0c0.3,0.1,0.5,0.3,0.5,0.6c0,0.3-0.3,0.6-0.6,0.6h0h-3.3c0,0-0.1,0-0.1,0  c-0.5,0-1-0.2-1.4-0.5c-0.3-0.3-0.5-0.7-0.8-0.8c-0.3-0.1-0.8,0-1.5,0.5c-0.6,0.4-1.4,0.7-1.9,0.9C81.5,31.9,81,32,80.4,32  c-1.4,0-2.5-0.4-3.3-1.3c-0.8-0.8-1.1-1.9-1.1-3.3c0-2.6,0-5.2,0-7.8c0-0.6-0.1-1-0.2-1.2c-0.1-0.2-0.4-0.3-0.9-0.4  c-0.2,0-0.4,0-0.6-0.1c-0.2-0.1-0.3-0.3-0.3-0.5c0-0.2,0.1-0.4,0.3-0.5c0.1-0.1,0.3,0,0.5-0.1c0.7,0,1.4-0.1,2.2-0.2  c0.9-0.1,1.6-0.2,2.1-0.3c0.2,0,0.4-0.1,0.6-0.1c0.2,0,0.3,0.1,0.4,0.3c0,0.1,0,0.2,0,0.3c0,3.1,0,6.6,0,9.7c0,1,0.2,1.7,0.6,2.1  c0.4,0.5,1,0.7,1.7,0.7c0.6,0,1.2-0.2,1.8-0.5c0.8-0.4,1.1-1.2,1.1-1.8C85.4,23.8,85.4,20.6,85.4,17.3z M150.2,26.9l0-2.6l0,0v0  c0-0.4-0.3-0.7-0.7-0.7c-0.1,0-0.2,0-0.3,0.1l-1.3,0.7c-1.2,0.7-1.9,1.8-1.8,3c0,1.1,0.9,2.1,2.1,2.1c0.9,0,1.7-0.6,1.9-1.4  C150.2,27.7,150.2,27.3,150.2,26.9z M154.3,20.3V28c0,0.7,0.1,1.2,0.3,1.5c0.1,0.3,0.3,0.4,0.5,0.5c0.4,0.1,0.6,0.4,0.6,0.7  c0,0.3-0.2,0.5-0.4,0.6l0,0c-0.6,0.4-1.4,0.6-2.2,0.6c-0.7,0-1.3-0.2-1.8-0.5c-0.5-0.4-0.8-1-1.6-1c-0.7,0-1.1,0.5-1.6,0.9  c-0.5,0.4-1,0.6-1.9,0.6c-1.3,0-2.3-0.4-3.1-1.3c-0.8-0.9-1.2-1.8-1.2-2.9c0-1.7,0.9-2.9,2.6-3.6c1-0.4,2-0.8,3-1.2  c0.7-0.3,1.3-0.6,1.8-0.8l0,0l0,0c0.4-0.2,0.8-0.6,0.8-1.2v0v-0.4c0-1.6-0.5-2.9-1.8-2.9c-2.4-0.1-2.6,2-2.9,3.5  c-0.1,0.6-0.6,0.9-1.1,0.9c-0.4,0-0.8-0.1-1.2-0.4c-0.5-0.4-0.5-0.8-0.5-1.2c0-2.4,2.7-4.3,5.8-4.3C152,16.1,154.3,16.9,154.3,20.3z   M162.2,24.9l0,6.3v0c0,0.2-0.2,0.4-0.4,0.4h0l0,0h-3.3l0,0h0c-0.2,0-0.4-0.2-0.4-0.4l0,0h0v-2.9v0v0v-2.9h0v-5.1  c0-0.7-0.1-1.2-0.2-1.5c-0.1-0.2-0.3-0.3-0.7-0.3c-0.3,0-0.6,0-0.9-0.1c-0.2-0.1-0.3-0.3-0.3-0.5c0-0.2,0.1-0.4,0.3-0.5  c0.1,0,0.2-0.1,0.3-0.1c0.8-0.1,1.6-0.3,2.4-0.4c0.5-0.1,1.5-0.2,2.7-0.5c0.3-0.1,0.6,0,0.6,0.3c0,1.1,0.6,1.4,2,0.5  c0.6-0.4,1.1-0.6,1.6-0.7c0.5-0.2,1-0.2,1.5-0.2c1.4,0,2.5,0.4,3.3,1.3c0.8,0.8,1.2,1.9,1.2,3.3c0,1.7,0,3.1,0,4.7h0v2.9  c0,1,0.1,2.2,1.3,2.3h0c0,0,0.1,0,0.1,0l0,0v0c0.3,0,0.5,0.3,0.5,0.5s-0.3,0.6-0.6,0.6l0,0h-3.3c0,0-0.1,0-0.1,0  c-1.1,0-2.1-0.9-2.1-2.1c0,0,0-0.1,0-0.1v-4.1h0c0-1.3,0-2.5,0-3.8c0-1-0.2-1.7-0.6-2.1c-0.4-0.5-1-0.7-1.7-0.7  c-0.6,0-1.2,0.2-1.8,0.5c-0.8,0.4-1.1,1.2-1.1,1.8C162.2,22.3,162.2,23.6,162.2,24.9z M136.8,9.2c0.7,0,1.3,0.2,1.8,0.7  c0.5,0.5,0.7,1.1,0.7,1.8c0,0.7-0.2,1.3-0.7,1.8c-0.5,0.5-1.1,0.7-1.8,0.7c-0.7,0-1.2-0.2-1.8-0.7c-0.5-0.5-0.8-1.1-0.8-1.8  c0-0.7,0.2-1.3,0.7-1.8C135.6,9.4,136.2,9.2,136.8,9.2z M137.3,31.7c0,0-0.1,0-0.1,0c-1.1,0-2.1-0.9-2.1-2.1c0,0,0-0.1,0-0.1v-8.8  c0-0.9,0.1-1.9-0.9-2.1c-0.2-0.1-0.6-0.1-0.8-0.2c-0.2-0.1-0.3-0.3-0.3-0.5c0-0.2,0.1-0.4,0.3-0.5c0.1-0.1,0.4-0.1,0.5-0.1  c0.7-0.1,1.4-0.2,2-0.4c0.9-0.2,1.8-0.4,2.7-0.6c0.3-0.1,0.6,0,0.6,0.3l0,11.7c0,1,0.1,2.2,1.3,2.3h0c0,0,0.1,0,0.1,0h0v0  c0.3,0,0.5,0.3,0.5,0.5s-0.3,0.6-0.6,0.6l0,0H137.3z M131.1,19.5C131.1,19.5,131.1,19.4,131.1,19.5c0,0.3-0.1,0.7-0.5,0.7  c-0.4,0.1-0.7-0.2-0.8-0.4c-0.5-1.3-1.5-2.3-3-2.3c-0.5,0-1.4,0.2-1.8,0.6c-0.4,0.4-0.6,0.8-0.6,1.4c0,0.5,0.2,0.9,0.7,1.4  c1.5,1.4,4.1,1.4,5.7,2.9c0.9,0.8,1.3,1.9,1.3,3.2c0,1.6-0.7,2.9-2.1,3.8c-1.2,0.8-2.6,1.2-4.3,1.2c-0.9,0-1.8-0.1-2.6-0.4  c-0.7-0.2-1.3-0.5-1.7-0.9v0c-0.1-0.1-0.1-0.2-0.2-0.3l0,0c-0.1-0.3-0.2-0.9-0.3-1.7c-0.1-0.4-0.1-0.9-0.1-1.2c0-0.1,0-0.2,0-0.2  c0-0.3,0.3-0.6,0.6-0.6c0.3,0,0.5,0.2,0.6,0.4c0.8,2.2,1.9,3.4,4.1,3.5c0.6,0,1.2-0.2,1.6-0.6c0.4-0.4,0.6-0.9,0.6-1.6  c0-0.6-0.2-1.1-0.6-1.5c-0.4-0.5-1.1-0.9-2-1.2c-2.1-0.8-4.7-2.5-4.8-5c0-2.5,2-3.8,4.2-4.3c1.7-0.4,3.4-0.1,5,0.5c0,0,0.1,0,0.1,0  c0.1,0,0.1,0.1,0.2,0.2c0,0.1,0.1,0.1,0.1,0.2c0.1,0.3,0.2,0.7,0.3,1.2C131,18.9,131,19,131.1,19.5L131.1,19.5z M113.6,26.9l0-2.6  l0,0v0c0-0.4-0.3-0.7-0.7-0.7c-0.1,0-0.2,0-0.3,0.1l-1.3,0.7c-1.2,0.7-1.9,1.8-1.8,3c0,1.1,0.9,2.1,2.1,2.1c0.9,0,1.7-0.6,1.9-1.4  C113.6,27.7,113.6,27.3,113.6,26.9z M117.6,20.3V28c0,0.7,0.1,1.2,0.3,1.5c0.1,0.3,0.3,0.4,0.5,0.5c0.4,0.1,0.6,0.4,0.6,0.7  c0,0.3-0.1,0.5-0.4,0.6l0,0c-0.6,0.4-1.4,0.6-2.2,0.6c-0.7,0-1.3-0.2-1.8-0.5c-0.5-0.4-0.8-1-1.6-1c-0.7,0-1.1,0.5-1.6,0.9  c-0.5,0.4-1,0.6-1.9,0.6c-1.3,0-2.3-0.4-3.1-1.3c-0.8-0.9-1.2-1.8-1.2-2.9c0-1.7,0.9-2.9,2.6-3.6c1-0.4,2-0.8,3-1.2  c0.7-0.3,1.3-0.6,1.8-0.8l0,0l0,0c0.4-0.2,0.8-0.6,0.8-1.2v0v-0.4c0-1.6-0.5-2.9-1.8-2.9c-2.4-0.1-2.6,2-2.9,3.5  c-0.1,0.6-0.6,0.9-1.1,0.9c-0.4,0-0.8-0.1-1.2-0.4c-0.5-0.4-0.5-0.8-0.5-1.2c0-2.4,2.7-4.3,5.8-4.3  C115.4,16.1,117.6,16.9,117.6,20.3z M96.1,31.7c0,0-0.1,0-0.1,0c-1.1,0-2.1-0.9-2.1-2.1c0,0,0-0.1,0-0.1v-8.8c0-0.9,0.1-1.9-0.9-2.1  c-0.2-0.1-0.6-0.1-0.8-0.2c-0.2-0.1-0.3-0.3-0.3-0.5c0-0.2,0.1-0.4,0.3-0.5c0.1-0.1,0.3-0.1,0.5-0.1c0.7-0.1,1.4-0.2,2-0.4  c0.9-0.2,1.8-0.4,2.7-0.6c0.3-0.1,0.6,0,0.6,0.3c0,0.3,0,0.9,0,1.1c0,0.5,0.4,0.6,0.8,0.2c0.2-0.1,0.4-0.4,0.5-0.5  c0.5-0.4,1-0.7,1.5-1c0.3-0.2,0.7-0.3,1.1-0.3c0.7,0,1.2,0.2,1.6,0.6c0.4,0.4,0.7,0.9,0.7,1.5c0,0.6-0.2,1.1-0.5,1.5  c-0.3,0.5-0.7,0.8-1.1,0.9c-0.2,0.1-0.3,0.1-0.4,0.1c-0.2,0-0.4-0.1-0.6-0.2c-0.6-0.5-1.2-0.7-1.7-0.7c-0.4,0-0.7,0.1-1,0.3  c-0.8,0.6-0.8,1.4-0.8,2.3v5.8c0,1,0.1,2.2,1.3,2.3h0c0,0,0.1,0,0.1,0h0v0c0.3,0.1,0.5,0.3,0.5,0.6c0,0.3-0.3,0.6-0.6,0.6h0H96.1z   M64.3,9.5c1.8,0,3.5,0,4.8,0c1,0,1.8,0.1,2.4,0.2c0,0,0,0,0,0c0.2,0,0.4,0.2,0.4,0.4v0l0,0l0.2,3.3c0,0.2,0,0.3-0.1,0.5  c-0.1,0.3-0.4,0.4-0.7,0.4c-0.3,0-0.5-0.2-0.7-0.4c0-0.1-0.1-0.2-0.1-0.2c-0.3-0.8-0.6-1.4-0.9-1.8c-0.5-0.5-1.7-1.1-3.7-1.1h-1.3  c-0.7,0-1.1,0-1.2,0.2c-0.1,0.1-0.2,0.5-0.2,1.1v5.5c0,0.3,0,0.6,0.1,0.8c0.1,0.4,0.5,0.7,0.9,0.9c0.2,0.1,0.5,0,0.7,0h0.9  c1.5,0,2.4-0.1,2.7-0.4c0.2-0.2,0.5-0.8,0.6-1.7c0-0.1,0-0.2,0.1-0.3c0.1-0.3,0.3-0.4,0.6-0.4c0.3,0,0.5,0.2,0.6,0.4l0,6.6  c-0.1,0.2-0.3,0.4-0.6,0.4c-0.3,0-0.5-0.2-0.6-0.4c-0.1-0.1-0.1-0.3-0.1-0.4c-0.2-0.9-0.4-1.5-0.6-1.7c-0.3-0.3-1.2-0.4-2.7-0.4  h-0.9c-0.2,0-0.5,0-0.7,0.1c-0.4,0.1-0.7,0.5-0.8,0.9c-0.1,0.2,0,0.5,0,0.7l0,3.9c0,1.3,0.1,2.2,0.2,2.6c0.1,0.4,0.3,0.8,0.7,0.9  c0.3,0.1,0.6,0.2,1,0.2c0.4,0,1,0.1,1.9,0.1c2.7-0.1,3.9-0.7,5-3.5c0.1-0.3,0.2-0.7,0.8-0.7c0.4,0,0.7,0.3,0.7,0.6  c0,0.2,0,0.4,0,0.6c-0.1,0.5-0.2,1-0.3,1.5c-0.2,1.1-0.4,1.8-0.5,2.3c0,0,0,0,0,0c-0.1,0.2-0.2,0.3-0.4,0.3l0,0  c-0.5,0.1-1.2,0.2-2.1,0.2c-1.6,0-3.6,0.1-5.8,0.1c-2.4,0-4.6,0-6.2,0c-0.9,0-1.7-0.1-2.2-0.2l0,0c0,0-0.1,0-0.1,0  c-0.2-0.1-0.3-0.3-0.3-0.5c0-0.2,0.2-0.4,0.4-0.5c0.1,0,0.3,0,0.4,0c0.9-0.1,1.5-0.3,1.8-0.6c0.3-0.4,0.5-1.6,0.5-3.5l0.1-11.4  c0-1.9-0.2-3-0.4-3.5c-0.2-0.4-0.8-0.6-1.6-0.7c-0.1,0-0.2,0-0.4,0c-0.2-0.1-0.4-0.3-0.4-0.5c0-0.2,0.2-0.5,0.4-0.5c0,0,0.1,0,0.1,0  v0c0.4-0.1,1-0.1,1.7-0.2C59.8,9.5,62,9.5,64.3,9.5z M209.7,27.1v-2.6v0v0c0-0.4-0.3-0.7-0.7-0.7c-0.1,0-0.2,0-0.3,0.1l-1.3,0.7  c-1.2,0.7-1.9,1.8-1.8,3c0,1.1,0.9,2.1,2.1,2.1c0.9,0,1.6-0.6,1.9-1.3C209.8,27.9,209.7,27.5,209.7,27.1z M213.8,20.5v7.7  c0,0.7,0.1,1.2,0.3,1.5c0.1,0.3,0.3,0.4,0.5,0.5c0.4,0.1,0.6,0.4,0.6,0.7c0,0.3-0.2,0.5-0.4,0.6v0c-0.6,0.4-1.4,0.6-2.2,0.6  c-0.7,0-1.3-0.2-1.8-0.5c-0.5-0.4-0.8-1-1.6-1c-0.7,0-1.1,0.5-1.6,0.9c-0.5,0.4-1,0.6-1.9,0.6c-1.3,0-2.3-0.4-3.1-1.3  c-0.8-0.9-1.2-1.9-1.2-2.9c0-1.7,0.9-2.9,2.6-3.6c1-0.4,2-0.8,3-1.2c0.7-0.3,1.3-0.6,1.8-0.8l0,0l0,0c0.4-0.2,0.8-0.6,0.8-1.2l0-0.1  v-0.4c0-1.6-0.5-2.9-1.8-2.9c-2.4-0.1-2.6,2-2.9,3.6c-0.1,0.6-0.6,0.9-1.1,0.9c-0.4,0-0.8-0.2-1.2-0.4c-0.5-0.4-0.5-0.8-0.5-1.2  c0-2.4,2.7-4.3,5.8-4.3C211.5,16.3,213.8,17.2,213.8,20.5z M221.7,25v6.3v0c0,0.2-0.2,0.4-0.4,0.4h0l0,0h-3.3l0,0h0  c-0.2,0-0.4-0.2-0.4-0.4l0,0h0v-2.9v0v0v-2.9h0v-5.1c0-0.7-0.1-1.2-0.2-1.5c-0.1-0.2-0.3-0.3-0.7-0.3c-0.3,0-0.6,0-0.9-0.1  c-0.2-0.1-0.3-0.3-0.3-0.5c0-0.2,0.1-0.4,0.3-0.5c0.1,0,0.2-0.1,0.3-0.1c0.8-0.1,1.6-0.3,2.4-0.4c0.5-0.1,1.5-0.2,2.7-0.5  c0.3-0.1,0.6,0,0.6,0.3c0,1.1,0.6,1.4,2,0.5c0.6-0.4,1.1-0.6,1.6-0.7c0.5-0.2,0.9-0.2,1.5-0.2c1.4,0,2.5,0.4,3.3,1.3  c0.8,0.8,1.2,1.9,1.2,3.3c0,1.7,0,3.1,0,4.7h0l0,2.9c0,1,0.1,2.2,1.3,2.3h0c0,0,0.1,0,0.1,0l0,0v0c0.3,0.1,0.5,0.3,0.5,0.6  c0,0.3-0.2,0.6-0.6,0.6l0,0h-3.3c0,0-0.1,0-0.1,0c-1.1,0-2.1-0.9-2.1-2.1c0,0,0-0.1,0-0.1v-4.1l0,0c0-1.3,0-2.5,0-3.8  c0-1-0.2-1.7-0.6-2.1c-0.4-0.5-1-0.7-1.7-0.7c-0.6,0-1.2,0.2-1.8,0.5c-0.8,0.4-1.1,1.2-1.1,1.8C221.7,22.5,221.7,23.7,221.7,25z   M234.7,13.8c0-0.9,0.1-1.9-0.9-2.1c-0.2-0.1-0.6-0.1-0.8-0.2c-0.2-0.1-0.3-0.3-0.3-0.5c0-0.2,0.1-0.4,0.3-0.5  c0.1-0.1,0.3-0.1,0.5-0.1c0.7-0.1,1.4-0.2,2-0.3c0.9-0.2,1.9-0.4,2.7-0.6c0.3-0.1,0.6,0,0.6,0.3c0.1,4.2,0,8.7,0,12.9  c0,0.5,0.2,0.6,0.4,0.7c0.2,0.1,0.5,0,0.9-0.5c1-1.3,2-2.7,3-4c0.3-0.4,0.7-1.2-0.2-1.3c-0.7-0.1-0.6-1.2,0.1-1.2c1,0,2.8,0,4,0  c0.5,0,0.8,0.3,0.8,0.6c0,0.9-0.9,0.3-2.4,2l-2.3,2.4c-0.7,0.7-1,1.1-0.3,2c1,1.4,3,4,3.4,4.6c1,1.2,2,2.6,3.1,2.6h0  c0,0,0.1,0,0.1,0h0v0c0.3,0,0.4,0.3,0.4,0.5c0,0.3-0.2,0.6-0.5,0.6h0h-4c0,0-0.1,0-0.1,0c-1,0-1.4-0.6-1.9-1.3l-3.6-5.2  c-0.3-0.5-0.9-0.4-0.9,0.3c0,1.9,0,3.9,0,5.8v0c0,0.2-0.2,0.4-0.4,0.4l0,0v0h-3.3l0,0h0c-0.2,0-0.4-0.2-0.4-0.4v0l0,0  C234.7,25.6,234.7,19.6,234.7,13.8z"/>
</svg>