<svg version="1.1" xmlns="http://www.w3.org/2000/svg" xmlns:xlink="http://www.w3.org/1999/xlink">
    <symbol viewBox="0 0 32 32" id="portfolio">
        <path d="M19.732 7.203v-2.666h-7.464v2.666h-9.063v20.259h25.59v-20.259h-9.063zM13.334 5.604h5.331v1.599h-5.331v-1.599zM12.268 8.27h15.461v8.53h-7.997v-2.133h-7.464v2.133h-7.997v-8.53h7.997zM18.666 15.733v3.199h-5.331v-3.199h5.331zM4.271 26.396v-8.53h7.997v2.133h7.464v-2.133h7.997v8.53h-23.457z"></path>
    </symbol>
    <symbol viewBox="0 0 32 32" id="clock">
        <path d="M16 3.205c-7.066 0-12.795 5.729-12.795 12.795s5.729 12.795 12.795 12.795 12.795-5.729 12.795-12.795c0-7.066-5.729-12.795-12.795-12.795zM16 27.729c-6.467 0-11.729-5.261-11.729-11.729s5.261-11.729 11.729-11.729 11.729 5.261 11.729 11.729c0 6.467-5.261 11.729-11.729 11.729z"></path>
        <path d="M16 17.066h-6.398v1.066h7.464v-10.619h-1.066z"></path>
    </symbol>
    <symbol viewBox="0 0 32 32" id="star">
        <path d="M19.38 12.803l-3.38-10.398-3.381 10.398h-11.013l8.925 6.397-3.427 10.395 8.896-6.448 8.895 6.448-3.426-10.395 8.925-6.397h-11.014zM20.457 19.534l2.394 7.261-6.85-4.965-6.851 4.965 2.64-8.005-0.637-0.456-6.228-4.464h8.471l2.606-8.016 2.605 8.016h8.471l-6.864 4.92 0.245 0.744z"></path>
    </symbol>
    <symbol viewBox="0 0 40 40" id="map-marker">
        <path d="M20.0002 3.33331C13.5502 3.33331 8.3335 8.54998 8.3335 15C8.3335 23.75 20.0002 36.6666 20.0002 36.6666C20.0002 36.6666 31.6668 23.75 31.6668 15C31.6668 8.54998 26.4502 3.33331 20.0002 3.33331ZM20.0002 19.1666C17.7002 19.1666 15.8335 17.3 15.8335 15C15.8335 12.7 17.7002 10.8333 20.0002 10.8333C22.3002 10.8333 24.1668 12.7 24.1668 15C24.1668 17.3 22.3002 19.1666 20.0002 19.1666Z"/>
    </symbol>
    <symbol viewBox="0 0 32 32" id="like">
        <path d="M21.886 5.115c3.521 0 6.376 2.855 6.376 6.376 0 1.809-0.754 3.439-1.964 4.6l-10.297 10.349-10.484-10.536c-1.1-1.146-1.778-2.699-1.778-4.413 0-3.522 2.855-6.376 6.376-6.376 2.652 0 4.925 1.62 5.886 3.924 0.961-2.304 3.234-3.924 5.886-3.924zM21.886 4.049c-2.345 0-4.499 1.089-5.886 2.884-1.386-1.795-3.54-2.884-5.886-2.884-4.104 0-7.442 3.339-7.442 7.442 0 1.928 0.737 3.758 2.075 5.152l11.253 11.309 11.053-11.108c1.46-1.402 2.275-3.308 2.275-5.352 0-4.104-3.339-7.442-7.442-7.442v0z"></path>
    </symbol>
    <symbol viewBox="0 0 793 435" id="map">
        <path d="M379.817 99.8827L382.947 100.073L384.597 103.533L387.497 102.243L391.197 101.673L391.337 104.753H397.567L399.537 105.813L401.687 106.083L402.927 105.373L407.037 106.833L406.817 100.143L411.137 100.023L412.277 101.443L415.047 102.563L417.097 104.443L417.627 104.743L418.757 103.623L418.257 102.923L418.847 101.893L419.617 102.483L422.047 99.8327L421.827 98.8827L420.637 98.4027L420.207 96.2227L423.037 96.2827L423.797 94.5927L424.627 94.1127L426.767 94.4027L427.257 92.8227L427.797 92.7327L428.167 90.8727L429.557 90.0327L430.367 89.9527L430.697 88.7627L431.367 88.8127L432.227 87.9327L432.757 88.1127L434.417 87.2827L432.767 85.4027L433.837 85.6227L432.917 82.4327L435.907 79.6727L434.767 78.0927L435.457 77.8727L435.527 76.5127L435.187 75.4027L433.837 75.2927L434.087 72.9927L431.917 72.8227L431.307 71.5527L430.237 71.1927L430.147 70.0927L428.747 68.0627L429.337 67.1527L430.157 67.0727L430.717 66.8427L430.757 66.0227L431.747 65.2727L432.257 65.8627L432.857 64.6727L431.907 64.7327L431.847 63.0827L434.707 63.1627L435.147 62.6427L434.627 62.0527L434.787 61.5127L434.147 60.5027L435.647 60.6127L435.817 59.8027L437.727 59.9427L437.817 60.9227L440.557 60.7227L440.497 59.0527L442.407 59.2027L442.467 60.5927L443.687 60.8327L443.917 61.6727L444.727 61.8827L445.077 63.0127L445.127 64.5327L446.467 64.9127L447.097 63.4527L446.017 63.2227L445.687 61.6827L446.507 61.6027L446.867 59.9727L447.947 60.2027L448.407 59.2727L449.357 59.2127L450.087 58.4327L454.307 58.5027L454.497 60.0427L455.567 60.4127L455.787 63.7427L455.317 64.8027L455.977 65.1327L456.417 64.4827L458.827 65.0927L460.217 64.5227L460.387 66.3227L459.547 66.8027L459.767 67.6527L458.947 67.7227L459.027 68.6827L458.447 69.1927L462.247 69.0927L462.547 68.5727L463.227 68.6227L463.327 69.1827L465.307 71.6827L465.597 73.2227L467.487 72.9727L467.127 70.6127L468.887 70.3527L469.357 67.6427L477.567 67.4127L477.487 68.3727L477.747 68.3927L477.457 70.2927L480.597 70.8527L480.807 71.4327L482.527 71.4527L483.257 70.6927L483.797 70.6027L484.257 69.9627L485.467 69.7927L486.117 68.4827L488.097 68.5327L487.977 69.7627L492.007 74.1427L491.227 75.3127L490.597 77.5927L491.217 79.3027L489.977 79.8627L489.997 80.9627L490.937 82.0227L491.197 83.2827L496.867 83.9927L501.467 83.6427L502.377 81.2627L506.127 80.4327L506.957 81.2127L508.767 80.3127L510.867 80.2927L511.497 79.3927L512.157 79.3327L512.567 80.3627L512.577 82.7327L513.397 83.6627L513.937 89.4127L516.427 88.3527L520.147 90.2427L522.787 90.1827L523.027 91.4627L524.477 91.3927L525.867 94.0627L533.387 94.6227L533.447 95.1827L534.467 95.3327L534.917 115.293L535.327 116.163L534.137 116.393L531.407 118.543L530.797 119.263L530.697 125.153L534.257 123.403L535.247 125.693L537.537 125.903L539.437 126.993L538.957 127.723L537.917 127.833L537.157 128.783L535.177 128.223L530.847 131.053L530.557 133.273L528.457 135.753L525.127 134.763L523.867 136.703L523.307 135.043L522.777 135.233L523.087 135.803L521.497 136.253L520.967 135.383L520.027 135.783L519.707 137.333L520.557 137.713L521.757 140.383L521.557 141.013L522.257 141.503L523.297 139.273L524.297 139.413L526.827 140.553L523.937 143.313L518.777 144.983L519.467 146.653L518.387 147.163L516.717 147.333L515.927 148.673L512.787 147.343L511.647 149.423L510.877 149.593L510.687 150.093L511.247 150.683L509.937 152.213L507.127 152.383L507.007 153.413L506.297 153.063L505.307 153.983L505.857 154.703L504.447 155.953L506.557 157.383L504.947 158.223L502.717 156.783L501.947 157.983L500.507 158.463L500.937 161.363L499.637 161.723L499.907 162.663L497.477 160.813L493.397 161.243L492.917 162.223L491.707 161.823L493.487 159.313L493.137 157.853L493.727 157.013L493.547 156.343L492.957 156.013L494.287 154.223L492.087 152.273L490.687 152.373L490.427 151.303L489.107 151.803L488.827 150.863L487.927 151.023L487.967 151.803L485.057 153.043L484.507 155.963L483.117 155.943L482.487 157.173L480.747 156.983L479.227 158.243L479.637 159.183L477.067 160.983L475.687 160.963L475.387 161.443L474.107 161.703L473.857 168.103L472.457 165.653L468.267 167.533L469.477 170.603L468.857 171.823L466.707 172.113L463.917 173.893L462.347 174.633L461.147 174.013L461.227 171.843L462.957 169.323L462.547 168.393L461.637 168.693L461.047 166.973L454.997 168.723L454.127 168.643L453.467 168.973L452.607 168.763L451.457 169.043L451.927 166.533L450.797 166.433L450.227 165.743L449.497 164.003L448.987 164.093L448.397 165.063L448.037 163.363L445.397 164.803L446.087 167.043L444.487 168.053L443.617 167.983L443.047 167.293L442.847 168.173L443.417 168.863L443.177 170.243L442.667 170.323L441.837 169.623L439.337 170.943L436.817 169.333L435.687 169.243L435.367 168.453L433.807 168.963L433.137 167.763L434.527 166.213L435.337 162.433L436.197 161.093L435.767 158.483L436.707 157.913L436.977 151.103L430.947 151.273L430.347 152.383L427.977 153.233L423.757 156.403L421.927 154.973L419.177 155.553L418.027 155.343L419.327 157.103L419.467 158.793L417.157 160.553L408.687 161.653L404.107 164.563L401.347 160.293L403.507 159.013L402.237 155.853L400.567 155.243L395.757 156.643L390.577 154.803L389.037 153.693L386.627 154.333L385.617 150.273L384.127 150.973L383.487 150.423L382.547 150.883L382.587 149.723L381.907 150.333L381.957 149.043L381.737 147.863L378.097 145.723L376.887 149.673L373.017 150.113L372.277 148.523L373.557 142.483L369.417 138.473L370.517 137.483L368.847 135.303L371.617 132.833L370.697 132.123L372.337 127.353L370.567 123.683L368.137 123.553L367.157 120.183L370.537 120.513L375.637 117.893L376.437 114.363L377.297 109.353L379.677 107.363L379.817 99.8827Z"/>
        <path d="M243.327 290.213L241.667 291.093L239.637 291.523L238.677 292.163L237.817 293.343L236.857 295.373L236.107 297.513L235.997 299.433L235.147 299.863L234.507 300.933L234.457 301.763L226.537 304.003L198.497 312.873L195.707 292.303L193.957 287.453L192.357 284.323L192.717 283.143L190.427 280.183L190.187 276.483L178.777 273.083L174.827 271.443L168.997 265.573L167.787 260.873L164.887 257.213L166.417 245.503L167.157 240.953L165.837 238.703L165.407 233.293L162.377 229.903L163.077 227.243L161.997 222.603L161.257 221.343L161.897 216.703L162.467 216.253L162.377 211.563L158.887 211.263L158.877 210.023L157.417 208.963L156.777 210.043L155.507 209.713L155.567 211.443L155.087 213.993L152.967 213.783L151.797 213.193L147.167 212.703L147.947 210.723L147.117 208.833L147.677 207.133L146.327 200.283L145.307 200.043L144.427 202.303L143.237 201.713L143.527 200.923L141.167 199.853L139.627 198.433L139.447 195.663L140.727 191.293L140.047 189.733L141.257 190.333L142.047 188.313L143.547 186.963L145.447 186.973L145.797 185.523L148.197 185.473L149.857 185.773L151.767 184.643L151.317 183.813L152.667 182.113L153.077 181.043H155.227L154.087 179.653L155.957 176.363L155.887 175.473L156.757 173.713L156.507 172.193L155.197 171.573L155.137 170.803L154.217 170.523L154.147 167.953L154.507 165.843L153.047 163.813L155.117 161.613L154.787 160.743L157.237 157.823L156.937 157.393L157.537 157.793L157.897 157.663L159.027 155.893L159.727 155.503L160.107 154.863L159.787 153.493L159.007 151.703L158.687 149.483L159.277 148.233L159.677 146.913L160.257 147.123L160.727 147.063L161.397 147.433L161.717 147.423L161.967 147.243L162.137 147.403L162.237 147.983L162.687 148.123L163.007 148.623L163.417 148.463L163.387 147.873L163.837 147.763L163.957 147.493L164.277 147.523L164.437 147.293L164.927 147.253L165.177 147.373L165.647 146.773L165.547 146.163L166.377 145.753L167.007 146.123L167.367 146.553L167.467 147.273L167.337 147.623L166.707 148.413L166.557 148.803L166.707 149.183L167.257 149.683L168.187 150.273L172.257 154.083L172.607 154.223L173.207 153.653L174.787 153.743L175.187 154.683L176.437 155.333L178.437 156.883L178.807 156.893L179.227 156.543L179.617 155.633L181.177 154.723L182.137 154.443L184.257 153.313L185.277 152.363L186.377 151.563L187.107 151.283L187.357 151.013L187.457 150.683L187.337 149.703L187.387 148.693L188.147 146.173L188.457 145.733L188.857 145.593L190.477 146.423L191.667 146.433L192.217 145.943L192.427 144.593L192.707 144.453L193.607 144.643L193.957 144.403L194.067 143.923L193.777 142.623L193.767 141.693L194.417 140.953L194.517 140.923L195.007 141.543L195.177 142.173L196.207 142.733L197.127 143.983L198.047 144.033L198.967 144.533L199.207 144.333L199.357 143.503L198.967 142.433L198.787 141.343L198.907 141.253L200.037 141.223L200.427 141.083L200.907 141.143L201.907 141.943L202.307 142.023L203.357 141.353L203.727 141.533L204.147 141.973L204.617 142.073L206.587 141.333L207.737 140.733L208.107 141.153L208.447 142.333L209.077 142.833L209.827 143.143L210.327 143.983L210.367 145.053L210.967 145.833L212.727 147.033L214.067 147.423L214.397 147.303L214.457 147.083L214.187 146.423L214.267 146.183L215.877 145.413L216.867 145.423L217.397 146.403L218.217 146.043L218.517 144.953L218.647 141.063L218.807 139.673L219.277 139.433L220.047 139.373L220.497 140.073L221.097 140.513L221.407 140.463L221.647 140.153L222.147 140.033L222.507 140.753L223.357 140.733L223.607 141.103L224.557 140.213L224.837 140.183L225.307 139.783L225.527 140.123L225.447 140.783L225.627 141.233L227.087 141.573L227.197 141.473L227.077 141.143L227.167 140.873L227.677 140.753L227.877 140.483L227.737 139.593L228.207 139.373L228.537 139.033L228.697 139.123L228.867 138.943L229.027 139.043L229.247 138.713L229.907 138.983L230.507 140.873L230.787 141.253L231.287 141.343L232.417 141.083L233.387 141.193L234.167 141.353L234.547 141.793L235.297 143.353L235.257 143.773L234.857 144.313L234.567 145.483L234.707 147.493L235.197 148.983L235.647 149.253L236.247 149.313L237.947 148.673L238.697 148.733L238.927 149.063L238.697 150.043L238.847 150.693L240.187 151.333L240.587 152.413L241.207 152.893L242.287 153.043L243.127 152.803L243.587 152.833L244.977 153.333L247.207 153.583L247.717 153.793L248.047 154.323L248.417 154.433L248.877 154.043L250.547 154.443L251.867 154.083L252.247 154.093L253.477 155.783V156.023L253.057 156.213L253.007 156.393L253.037 158.233L253.067 158.473L253.287 158.523L254.817 157.743L258.227 156.873L259.137 156.393L260.407 154.273L262.457 148.913L263.037 148.073L263.717 147.793L265.037 147.983L265.907 148.433L266.097 148.713L266.147 150.113L268.517 153.073L269.267 153.493L271.617 153.783L273.727 153.943L275.747 153.833L276.947 154.073L278.447 154.053L280.377 153.363L281.937 153.283L290.067 149.973L290.527 149.583L290.827 148.773L291.407 144.963L293.167 136.083L294.797 135.533L296.087 136.163L297.517 135.533L298.387 134.013L299.747 136.113L299.917 138.083L300.877 141.313L302.457 141.933L303.487 140.493L304.007 140.113L306.887 141.843V143.043L306.237 143.153L305.587 145.403L309.087 148.813L306.887 150.343L307.277 152.063L307.267 153.903L309.987 153.053L311.767 162.113L314.337 166.203L314.727 167.763L318.957 174.083L319.337 175.643L318.397 178.943L315.317 176.413L312.217 179.163L311.937 182.363L308.867 184.233L309.497 187.683L310.127 188.583L307.837 187.793L306.187 189.943L307.197 191.093L310.747 197.103L310.107 197.593L309.727 197.213L306.817 197.683L306.317 199.073L308.837 198.843L310.227 203.653L315.647 209.013L319.847 206.723L321.867 208.523L321.987 209.643L320.697 211.363L321.437 213.873L327.777 216.023L328.907 217.293L332.077 218.493L335.227 220.693L339.417 228.693L342.977 234.923L344.747 235.713L340.437 240.463L317.517 256.483L316.057 256.953L315.207 255.733L309.617 254.863L310.457 252.923L305.097 246.103L302.667 246.473L301.067 243.423L297.747 238.423L285.937 241.143L279.247 259.033L271.117 258.363L270.557 264.523L264.597 265.013L256.767 272.283L255.127 274.843L252.887 277.293L248.617 283.703L243.327 290.213Z"/>
        <path d="M620.777 255.053L623.097 256.563L624.067 257.703L626.517 257.923L627.467 260.363L636.117 259.393L642.217 267.943L651.467 264.713L655.617 266.433L655.537 268.433L662.187 271.353L667.837 274.513L673.877 274.663L674.967 276.323L675.887 276.293L676.977 275.583L677.547 277.013L678.177 277.743L679.047 276.513L679.617 276.523L678.887 277.663L679.537 277.803L680.217 277.833L680.897 278.343L681.527 277.183L681.987 277.163L681.627 278.143L680.647 278.873L680.917 279.173L681.767 279.003L681.077 279.913L687.517 287.463L689.037 293.213L692.187 296.643L691.587 300.843L691.827 302.423L692.537 303.043L694.547 302.323L694.877 302.773L696.587 303.803L697.307 304.443L700.667 305.163L700.937 305.543L701.457 307.523L700.717 311.053L698.657 314.093L697.627 313.373L695.167 311.183L694.127 310.923L692.557 311.253L691.437 311.703L689.577 312.983L688.337 313.103L687.767 312.773L687.427 311.763L687.237 311.663L686.197 311.933L685.697 311.783L685.567 310.673L685.347 310.243L685.107 308.983L684.387 308.433L684.017 307.783L683.197 307.333L683.007 307.633L682.607 307.833L681.967 307.683L681.037 308.423L680.757 308.973L680.037 309.143L679.747 309.543L679.227 309.853L678.267 310.013L677.967 309.483L677.847 309.503L676.917 310.383L676.307 310.243L676.097 310.063L675.507 310.623L674.537 310.783L674.157 310.663L674.017 310.863L673.287 311.093L673.007 311.623L672.797 311.673L671.867 311.393L671.827 311.723L671.537 312.033L671.487 312.383L671.277 312.613L670.877 312.593L670.117 312.853L668.877 312.813L667.697 313.823L666.987 313.893L666.267 313.433L664.997 313.073L664.557 312.633L664.417 312.693L664.307 313.283L663.927 313.633L662.177 314.373L661.257 314.253L660.377 314.383L659.987 314.073L659.537 314.173L659.057 314.583L658.707 315.543L657.807 316.173H657.047L656.657 315.653L656.397 315.573L655.847 315.783L655.117 316.393L654.657 316.543L653.807 316.593L653.327 316.153L652.657 316.213L652.007 316.043L651.847 316.313L652.087 316.863L652.027 317.113L651.737 316.953L651.447 317.013L650.327 318.243L648.357 319.493L648.047 319.843L647.547 319.993L647.327 320.343L647.547 320.583L648.067 320.213L648.497 320.203L649.137 320.633L649.647 320.703L650.217 322.393L651.007 322.823L652.577 322.583L653.197 322.023L654.657 322.233L655.347 321.713L655.837 321.773L656.137 322.113L656.027 322.453L656.197 322.543L657.027 322.303L657.487 323.213L659.087 324.013L659.777 324.683L659.877 325.403L658.217 325.963L657.427 326.763L658.257 328.043L658.007 328.603L657.487 330.773L657.067 331.513L657.467 332.823L657.847 335.883L658.237 337.033V339.173L658.517 341.013L659.097 342.463L658.967 343.023L658.997 343.293L659.277 343.653L659.227 344.413L660.247 346.663L660.187 347.483L660.507 348.953L660.867 349.213L661.867 351.443L664.327 357.643L664.627 358.043L664.887 358.983L664.657 359.793L664.687 360.313L664.197 360.813L663.237 362.873L663.277 363.063L663.507 363.353L664.867 363.263L665.137 363.383L665.177 364.123L665.577 364.923L665.597 365.593L665.937 366.403L665.497 367.223L664.887 367.273L664.437 367.653L663.937 367.353L663.397 367.253L661.927 367.673L660.157 369.133L658.367 369.643L657.957 370.113L657.947 370.943L658.257 371.523L658.897 372.153L659.787 372.733L661.447 373.163L661.877 373.913L661.827 374.033L661.617 373.993L661.067 374.293L660.847 374.063L660.767 374.293L660.427 374.423L660.107 374.283L659.977 374.563L658.557 375.163L658.567 375.423L658.137 375.713L657.837 375.603L657.317 375.813L657.307 375.593L656.767 375.803L656.667 375.513L656.487 375.503L655.427 375.683L655.367 376.483L655.047 377.283L654.657 378.943L653.967 379.613L653.667 380.733L653.867 381.783L654.487 383.073L655.067 383.613L655.597 383.663L655.807 383.903L655.437 384.333L654.617 384.743L654.497 385.333L654.467 386.213L654.877 386.783L654.847 388.203L655.757 388.853L655.527 389.643L655.997 390.293L655.827 391.253L655.187 391.623L654.827 391.643L654.477 391.363L654.247 391.353L653.687 391.813L653.387 391.753L652.867 392.113L652.717 392.023L652.587 391.573L652.747 390.273L652.387 389.723L652.067 388.813L651.617 388.523L650.857 388.333L650.077 387.583L649.757 386.663L649.477 386.163L649.247 386.013L648.087 385.933L647.907 386.323L647.647 386.393L647.497 386.203V385.843L647.357 385.793L646.497 385.723L646.187 385.523L645.717 385.593L645.457 385.173L643.897 384.923L642.957 385.583L642.127 385.443L640.897 385.463L640.407 384.643L638.667 383.243L638.197 382.213L637.957 381.983L636.817 381.103L635.897 380.853L635.537 380.383L635.247 380.273L634.447 378.873L634.247 377.783L634.337 377.293L634.567 376.973L634.447 376.863L633.977 376.873L632.937 377.213L632.627 377.883L632.427 378.013L631.837 377.243L631.487 377.043L630.727 377.133L630.167 376.923L629.617 377.083L629.087 376.723L628.067 376.523L627.567 376.253L627.057 376.303L626.477 375.803L625.887 375.833L625.607 375.623L624.887 375.883L624.337 375.143L622.347 374.683L621.907 373.983L621.157 373.703L619.467 374.403L618.847 374.173L618.517 374.823L618.037 374.973L615.067 374.293L614.667 374.913L613.697 374.743L613.227 374.893L612.757 375.423L612.377 374.873L612.027 374.663L611.727 374.673L610.997 375.123L610.377 374.453L609.767 374.643L609.047 374.293L608.377 374.333L608.027 374.183L607.447 373.523L605.857 373.623L604.667 373.363L603.507 373.343L602.487 372.963L601.547 373.073L600.947 372.853L598.887 373.393L597.257 373.443L596.547 373.223L595.977 372.433L595.627 372.223L593.897 372.043L593.047 372.183L590.837 371.603L589.227 371.623L588.377 372.453L587.467 372.583L587.147 373.413L586.837 373.663L584.597 373.463L583.797 373.543L582.787 373.303L582.227 374.093L581.437 374.173L579.547 374.713L579.077 374.693L578.927 374.563L578.627 373.653L578.017 373.293L575.417 373.183L573.497 373.543L573.257 373.433L572.947 373.003L572.047 372.903L571.397 372.363L570.787 372.663L570.137 372.473L569.197 372.953L569.047 372.973L568.847 372.033L567.837 372.473L566.757 371.793L564.877 372.003L564.657 371.573L565.777 371.233L566.297 370.173L562.637 368.443L560.757 368.053L560.297 366.153L559.547 365.823L559.817 364.673L559.077 364.233L559.297 361.973L561.877 358.843L561.177 357.663L558.267 358.023L558.557 357.093L557.457 356.953L556.797 357.403L553.517 356.253L553.507 354.533L557.757 350.493L558.497 350.143L558.957 348.893L558.507 346.963L559.367 345.973L559.807 344.813L559.717 341.473L557.697 340.093L556.597 338.603L555.387 338.433L553.527 336.723L553.197 336.683L548.857 336.213L545.147 332.663L544.517 331.673L545.407 328.393L543.547 325.183L537.307 320.813L536.927 319.623L536.167 318.713L536.007 315.373L530.557 315.233L530.207 310.123L536.077 310.553L535.017 307.763L534.177 297.563L536.027 294.443L537.587 291.033L539.287 288.223L541.517 285.713L545.647 281.473L550.937 276.693L562.047 270.303L566.677 271.233L572.617 270.133L579.247 271.303L579.227 272.123L580.347 272.423L581.677 270.853L582.217 272.483L582.817 271.753L584.587 272.393L585.197 270.953L586.457 271.153L588.247 271.683L591.197 272.993L589.097 270.873L590.447 270.623L592.497 271.673L594.427 271.403L596.367 272.433L597.007 274.073L598.467 273.853L598.437 272.073L604.327 271.413L603.487 256.733L604.017 255.753L609.037 256.873L611.887 253.673L614.367 256.283L617.497 252.293L620.777 255.053Z"/>
        <path d="M64.8669 284.053L64.7269 284.173L64.4269 284.103L63.8269 282.853L63.6269 282.743L63.7869 282.553L63.2469 281.353L63.1469 280.553L62.6969 280.063L62.6269 279.833L62.7369 279.673L63.0369 279.563L64.0969 279.983L65.0569 281.063L65.3869 282.303L64.8669 284.053V284.053ZM139.627 198.433L141.157 199.863L143.517 200.923L143.227 201.723L144.407 202.313L145.287 200.053L146.307 200.293L147.657 207.143L147.097 208.843L147.917 210.733L147.147 212.713L151.767 213.203L152.937 213.793L155.057 214.003L155.537 211.453L155.487 209.723L156.757 210.053L157.387 208.973L158.857 210.033V211.273L162.347 211.573L162.437 216.263L161.867 216.703L161.227 221.343L161.967 222.603L163.047 227.243L162.347 229.903L165.377 233.293L165.807 238.703L167.127 240.953L166.387 245.513L164.857 257.213L167.757 260.883L168.967 265.583L174.797 271.443L178.747 273.083L190.157 276.483L190.397 280.183L192.687 283.133L192.327 284.313L193.917 287.443L192.177 286.403L190.657 286.513L189.747 285.663L188.407 286.353L186.347 285.733L185.837 284.173L184.977 283.793L183.987 284.473L182.987 283.883L181.537 283.463L181.217 282.573L181.527 281.033L180.857 279.023L179.907 278.893L179.347 279.193L179.047 279.693L178.477 279.873L177.217 279.093L174.867 275.763L170.287 280.303L168.137 280.003L160.457 280.803L156.737 282.253L153.797 282.323L151.997 283.043L150.737 283.343L149.547 283.283L148.167 283.603L147.777 284.243L144.777 283.873L145.047 285.113L143.997 287.123L139.577 290.413L141.617 291.613L140.357 292.823L138.387 294.013L136.037 295.023L134.647 295.213L133.347 296.073L130.347 295.673L129.727 297.223L127.107 297.083L122.657 295.983L122.627 295.733L123.357 295.853L123.707 295.703L122.967 295.443L122.847 295.193L122.917 294.523L123.327 294.343L123.267 293.883L123.457 293.723L124.957 293.573L124.167 293.113L124.037 292.693L124.297 292.423L125.087 292.213L124.657 291.733L124.387 291.043L123.917 290.663L123.807 290.313L123.977 290.133L124.827 290.123L125.107 289.603L124.027 288.653L123.637 288.503L123.047 287.803L123.457 287.263L124.137 287.273L123.447 286.933L123.367 286.543L123.097 286.453L123.307 286.113L123.267 285.723L123.817 285.303L124.667 285.413L124.357 284.893L124.657 284.693L124.247 284.553L124.187 284.283L124.867 283.913L125.347 283.113L125.737 283.563L125.677 283.163L125.807 282.783L125.687 282.653L125.417 282.743L125.227 282.423L125.487 282.003L125.547 281.443L125.987 280.813L126.057 280.053L127.257 278.763L127.797 278.583L127.287 278.393L127.237 278.223L127.857 278.133L127.967 277.983L127.557 277.753L127.167 277.123L126.337 276.383L126.617 274.863L126.387 273.843L127.117 273.133L126.347 272.843L126.617 272.183L126.237 270.793L126.037 270.733L125.767 270.873L125.477 270.733L125.037 271.033L124.777 270.913L125.007 270.463L125.357 270.353L124.727 269.713L124.517 269.793L124.357 269.683L124.517 268.993L124.887 268.713L124.647 268.213L124.247 268.053L124.127 268.123L123.657 268.893L122.697 269.463L122.167 270.303L122.147 271.023L121.817 270.993L121.477 270.753L121.517 270.253L121.347 269.953L121.427 269.623L121.687 269.363L121.567 268.933L121.217 268.703L120.847 268.853L120.597 269.173L120.397 269.113L120.437 268.363L120.597 268.113L120.247 267.993L120.177 267.713L119.377 267.393L119.267 267.213L119.357 267.043L119.717 267.143L120.137 266.673L119.967 266.433L120.067 265.953L119.847 265.573L119.397 265.263L116.517 265.823L115.767 266.643L115.317 266.863L115.077 266.823L114.727 266.043L114.287 265.963L113.757 268.373L113.527 268.643L112.947 268.883H112.097L110.657 268.093L108.737 267.743L107.317 266.953L106.297 267.063L105.857 266.833L105.837 266.613L105.597 266.713L105.487 266.473L104.237 266.033L102.837 265.823L102.127 265.863L101.387 265.333L101.507 266.413L101.957 266.853L102.457 267.103L102.727 267.563L102.657 268.713L102.397 269.243L102.267 269.153L102.377 269.473L102.247 269.483L101.907 268.563L102.077 267.733L101.667 267.303L101.317 267.253L101.217 266.863L100.827 266.513L100.357 264.753L100.197 264.763L100.167 265.093L99.9569 265.113L99.7069 265.473L99.2169 265.563L98.5569 266.243L98.3469 266.343L98.2269 266.173L98.7469 265.633L99.2369 265.353L99.4369 264.553L99.6169 264.543L99.6669 264.383L99.5069 264.113L99.8369 263.843L99.9069 263.303L99.0169 263.773L98.2969 264.653L98.7269 263.813L98.7169 263.503L97.6069 262.223L95.0669 261.473L94.2869 261.593L94.0269 261.383L93.5069 261.613L92.5469 261.293L92.1069 261.503L91.7169 261.483L90.3469 262.663L90.0369 262.683L89.7569 262.893L89.6069 263.623L89.2869 263.543L88.9769 263.723L88.0269 263.693L87.5769 263.473L87.0969 263.463L86.0169 262.933L85.0969 263.153L84.6969 263.413L84.2769 264.003L84.1169 264.083L83.9369 263.893L83.6369 263.953L82.7469 265.613L82.2269 266.113L81.8369 266.133L81.6669 265.943L81.8569 265.173L81.7769 264.813L81.5269 264.683L81.2469 264.813L80.6069 265.283L80.1069 265.943L79.9669 266.983L79.4369 268.383L79.1969 268.623L78.8569 268.543L78.6469 268.243L78.8969 267.363L78.7669 267.173L78.1169 267.703L77.8269 267.693L77.6469 266.523L77.1669 265.793L76.2069 267.413L76.0069 267.993L75.6569 268.363L75.5169 268.413L75.2769 268.113L75.4369 267.223L75.2069 267.213L74.6569 267.543L74.3669 267.933L74.5469 268.173L73.8869 268.713L73.3869 269.753L73.1569 270.633L72.8069 271.173L72.5469 270.873L72.4669 268.823L71.1569 270.213L70.5769 270.623L69.1769 272.713L68.9369 273.573L67.6069 273.213L66.9069 273.543L66.1369 274.763L66.2369 275.713L65.9669 276.103L65.4569 276.353L65.1369 276.813L64.2969 276.533L63.7669 276.103L64.0169 276.873L63.8669 277.483L64.8069 278.243L64.6069 278.333L64.0169 278.053L63.8769 278.213L64.6869 278.873L64.9969 279.393L64.9069 279.613L64.3769 279.463L63.1269 278.733L62.7069 278.683L62.1969 279.513L61.8569 279.463L61.5869 279.173L61.3669 279.233L61.1869 280.043L61.4469 280.523L61.0869 280.903L60.8469 280.753L60.5169 280.043L60.0069 279.433L59.8369 279.443L59.9369 280.213L60.2769 280.753L60.2969 281.053L60.8769 281.643L60.9969 282.163L60.8669 282.313L59.5469 281.543L58.8969 281.023L58.7969 280.793L58.3369 280.783L57.5269 280.183L57.3069 280.193L57.1269 280.533L56.5669 279.373L56.3269 279.243L56.3869 278.843L56.2569 278.573L56.4669 278.223L57.0869 278.403L56.2969 277.523L56.3469 277.163L56.2369 276.953L55.2269 276.593L54.7869 276.653L54.6369 276.773L54.9869 277.183H55.3569L55.5469 277.383L55.6369 277.703L55.5269 278.103L55.7669 279.013L56.7869 280.133L56.8969 280.533L56.7569 280.943L57.1769 281.203L57.2969 281.433V281.713L57.1369 281.893L56.7969 281.913L56.6069 282.263H56.4169L55.8169 281.803L55.8769 281.553L55.5469 280.413L55.6369 279.993L55.3769 279.893L55.4869 279.613L54.9169 278.213L54.2869 277.623L53.4469 277.143L53.4169 276.933L53.1869 276.753L52.8069 276.683L52.9569 276.913L52.8669 277.033L52.3669 276.663L52.3069 276.763L52.7569 277.723L53.2569 277.943L53.3269 277.573L53.5569 277.743L53.6769 278.163L53.9769 278.493L53.8869 278.803L54.0369 279.253L53.7869 279.213L53.3769 278.653L52.7669 278.273L52.6869 278.453L52.9669 278.663L53.1969 279.253L52.7369 279.433L52.7769 278.793L52.3469 278.413L52.0269 277.853L52.0769 277.633L52.2669 277.523L51.8669 277.153L51.5169 277.143L51.4269 277.273L51.6669 277.803L51.3769 277.983L51.7869 278.373L51.8369 278.763L52.2269 279.273L52.7569 279.733L52.6969 279.963L51.6269 279.383L49.6969 278.843L49.3569 278.303L48.5869 277.833L48.0369 277.723L47.0369 277.223L46.2269 276.443L45.5469 276.503L44.8569 275.533L44.5969 274.813L43.9269 274.453L43.5969 274.463L43.2169 274.163L42.5969 274.073L41.9369 272.763L41.5269 273.023L40.3869 272.783L40.0869 272.463L40.1869 271.943L40.1069 271.743L39.4469 271.663L38.8869 271.393L38.8969 270.803L39.4769 269.263L40.8269 268.113L42.2969 268.193L42.9069 268.663L43.0269 269.483L44.1269 270.553L45.0869 270.663L47.2869 270.403L48.0969 269.733L49.0569 268.313L48.3869 266.393L44.7069 261.413L43.7769 259.263L42.3769 255.783L42.0269 254.573L41.3369 249.923L38.7269 249.873L36.9369 249.373L34.9369 246.173L34.0769 244.123L33.0769 242.373L30.5569 239.933L29.5669 239.813L28.7769 240.063L25.4469 240.393L23.4669 240.433L20.8669 239.613L18.0569 238.413L18.0969 239.203L17.8869 240.783L17.4469 242.413L13.9469 240.333L12.8269 239.193L12.3769 238.413L13.2069 237.983L13.2869 237.803L11.5169 234.633L10.4869 233.093L12.8469 231.933L13.2369 231.333L13.9469 231.403L14.1669 230.823L12.0169 230.053L11.9769 229.523L12.4369 228.573L12.3869 227.733L12.1969 227.223L12.0169 226.973L10.8569 226.453L10.4469 225.783L13.3869 226.763L15.6669 226.643L25.5569 228.193L42.6969 230.103L48.0769 231.613L57.5969 235.383L57.4469 232.383L63.4969 232.713L64.5569 231.853L67.8269 231.933L71.7669 227.893L82.4469 220.723L83.6669 220.693L85.4869 218.963L86.2869 219.363L88.0769 218.263L89.1569 214.873L93.1769 214.593L95.4869 213.533L103.707 214.953L104.227 216.013L103.557 216.483L103.407 218.883L109.637 220.303L110.327 219.083L111.177 218.963L115.447 221.383L117.537 221.333L118.907 220.503L118.467 219.063L119.817 213.333L122.167 213.233L121.867 206.083L123.587 206.843L124.747 204.143L125.947 204.723L132.697 204.733L135.707 203.783L135.197 202.593L138.957 199.403L139.627 198.433V198.433Z"/>
        <path d="M528.457 135.753L535.157 138.183L535.237 140.443L536.087 141.753L535.227 144.393L534.797 146.703L534.907 149.733L533.867 149.973L533.337 151.073L534.177 152.373L532.737 153.733L535.597 156.883L538.467 156.133L541.267 155.903L542.837 154.583L543.097 155.403L546.277 156.023L547.347 157.363L546.227 158.233L547.517 161.543L548.877 158.133L551.597 161.033L552.717 161.083L554.217 163.663L553.537 164.063L554.067 165.573L556.307 166.463L556.627 167.673L555.967 167.953L556.257 168.513L555.207 168.853L555.007 168.563L552.357 169.683L552.387 170.333L551.147 171.163L551.817 173.453L553.067 173.393L553.437 174.223L555.387 173.643L559.407 170.713L560.347 169.453L566.047 169.643L566.737 169.253L567.007 168.273L567.937 167.913L568.797 168.833L575.627 166.953L578.147 168.433L579.067 168.213L579.967 165.793L580.417 166.133L581.947 165.253L584.137 165.013L586.317 166.313L587.047 165.033L586.927 162.043L588.137 157.223L590.137 155.273L593.887 154.303L597.327 157.943L601.387 158.103L604.587 160.153L605.737 164.243L604.187 166.373L606.427 167.973L605.987 169.683L603.127 172.063L601.597 174.193L598.847 175.453L597.987 176.053L596.217 176.103L595.677 178.413L596.267 179.293L595.817 181.113L596.327 182.483L595.927 184.053L594.197 186.773L589.137 188.633L584.547 190.843L584.257 192.553L585.817 194.343L585.767 195.343L587.407 195.883L590.327 198.293L590.377 200.173L591.947 201.083L593.827 203.043L591.967 203.833L591.567 203.263L589.947 204.103L590.117 205.253L589.667 207.173L591.037 209.903L598.997 208.593L599.797 210.973L598.977 214.173L598.997 215.413L595.417 219.093L593.927 218.583L592.937 218.663L591.927 219.593L592.147 221.113L590.607 221.583L591.327 223.063L593.007 223.843L593.277 225.123L596.317 225.043L597.237 225.323L596.817 226.353L595.107 226.423L594.597 227.923L597.097 230.203L599.057 230.053L600.437 231.153L596.817 232.473L597.977 234.143L596.647 234.153L596.467 236.553L595.507 236.513L594.547 240.603L593.377 243.193L593.777 244.343L594.217 244.543L595.237 248.943L595.447 250.423L593.677 249.643L591.837 249.933L591.937 252.123L591.107 254.143L589.577 254.723L591.317 255.623L592.327 257.343L594.217 258.743L597.107 259.823L598.047 257.233L599.257 256.483L601.547 257.603L603.487 256.733L604.327 271.413L598.437 272.073L598.467 273.853L597.007 274.073L596.367 272.433L594.427 271.403L592.497 271.673L590.447 270.623L589.097 270.873L591.197 272.993L588.247 271.683L586.457 271.153L585.197 270.953L584.587 272.393L582.817 271.753L582.217 272.483L581.677 270.853L580.347 272.423L579.227 272.123L579.247 271.303L572.617 270.133L566.677 271.233L562.047 270.303L550.937 276.693L545.647 281.473L541.517 285.713L539.287 288.223L537.587 291.033L505.467 290.663L486.857 291.353L483.417 291.103L467.837 291.503L440.307 291.563L403.547 290.983L403.237 288.283L402.297 288.003L394.587 288.433L369.217 281.543L365.627 279.543L362.087 275.543L358.037 275.193L348.267 269.933L346.267 269.873L336.517 266.063L335.667 265.203L333.787 266.363L328.027 263.133L325.447 263.333L322.517 261.363L320.197 259.173L312.167 260.663L317.517 256.483L340.437 240.463L344.747 235.713L342.977 234.923L339.417 228.693L344.907 223.703L343.827 220.223L351.077 218.623L349.587 216.713L350.257 215.633L349.527 213.863L353.647 214.023L354.647 206.493L369.637 208.973L371.077 208.163L372.487 208.353L374.697 207.573L375.987 204.403L382.037 204.183L387.877 197.743L390.837 197.393L392.097 192.963L394.647 193.223L395.687 190.643L398.657 187.933L402.757 185.533L409.227 178.113L413.547 172.563L412.637 170.723L413.187 170.123L412.507 168.803L413.197 167.953L416.437 167.533L420.007 166.003L421.367 164.823L421.987 163.333L423.097 162.133L422.767 161.333L420.667 160.153L420.577 159.513L419.467 158.793L419.327 157.103L418.027 155.343L419.177 155.553L421.927 154.973L423.757 156.403L427.977 153.233L430.347 152.383L430.947 151.273L436.977 151.103L436.707 157.913L435.767 158.483L436.197 161.093L435.337 162.433L434.527 166.213L433.137 167.763L433.807 168.963L435.367 168.453L435.687 169.243L436.817 169.333L439.337 170.943L441.837 169.623L442.667 170.323L443.177 170.243L443.417 168.863L442.847 168.173L443.047 167.293L443.617 167.983L444.487 168.053L446.087 167.043L445.397 164.803L448.037 163.363L448.397 165.063L448.987 164.093L449.497 164.003L450.227 165.743L450.797 166.433L451.927 166.533L451.457 169.043L452.607 168.763L453.467 168.973L454.127 168.643L454.997 168.723L461.047 166.973L461.637 168.693L462.547 168.393L462.957 169.323L461.227 171.843L461.147 174.013L462.347 174.633L463.917 173.893L466.707 172.113L468.857 171.823L469.477 170.603L468.267 167.533L472.457 165.653L473.857 168.103L474.107 161.703L475.387 161.443L475.687 160.963L477.067 160.983L479.637 159.183L479.227 158.243L480.747 156.983L482.487 157.173L483.117 155.943L484.507 155.963L485.057 153.043L487.967 151.803L487.927 151.023L488.827 150.863L489.107 151.803L490.427 151.303L490.687 152.373L492.087 152.273L494.287 154.223L492.957 156.013L493.547 156.343L493.727 157.013L493.137 157.853L493.487 159.313L491.707 161.823L492.917 162.223L493.397 161.243L497.477 160.813L499.907 162.663L499.637 161.723L500.937 161.363L500.507 158.463L501.947 157.983L502.717 156.783L504.947 158.223L506.557 157.383L504.447 155.953L505.857 154.703L505.307 153.983L506.297 153.063L507.007 153.413L507.127 152.383L509.937 152.213L511.247 150.683L510.687 150.093L510.877 149.593L511.647 149.423L512.787 147.343L515.927 148.673L516.717 147.333L518.387 147.163L519.467 146.653L518.777 144.983L523.937 143.313L526.827 140.553L524.297 139.413L523.297 139.273L522.257 141.503L521.557 141.013L521.757 140.383L520.557 137.713L519.707 137.333L520.027 135.783L520.967 135.383L521.497 136.253L523.087 135.803L522.777 135.233L523.307 135.043L523.867 136.703L525.127 134.763L528.457 135.753Z"/>
        <path d="M378.467 27.8027L379.177 27.7327L380.707 27.1927L381.707 30.9827L382.117 31.5827L381.557 32.3827L383.767 38.4627L380.037 39.7927L383.707 42.0927L385.067 42.2227L386.127 45.0327L385.577 45.5627L383.817 45.7327L378.737 48.4127L380.767 54.9327L383.257 54.3927L383.297 59.6527L381.717 61.2027L380.847 62.3827L381.697 64.9227L384.977 65.2727L385.177 73.9327L388.107 75.7627L387.617 77.9227L384.767 77.3227L383.497 78.3327L381.447 78.1927L380.587 79.2327L381.287 82.4127L382.247 82.4727L382.407 85.4727L381.997 85.4427L382.127 89.1127L380.057 89.6527L379.817 99.8827L379.677 107.363L377.297 109.353L376.437 114.363L375.637 117.893L370.537 120.513L367.157 120.183L368.137 123.553L370.567 123.683L372.337 127.353L370.697 132.123L371.617 132.833L368.847 135.303L370.517 137.483L369.417 138.473L373.557 142.483L372.277 148.523L373.017 150.113L376.887 149.673L378.097 145.723L381.737 147.863L381.957 149.043L381.907 150.333L382.587 149.723L382.547 150.883L383.487 150.423L384.127 150.973L385.617 150.273L386.627 154.333L389.037 153.693L390.577 154.803L395.757 156.643L400.567 155.243L402.237 155.853L403.507 159.013L401.347 160.293L404.107 164.563L408.687 161.653L417.157 160.553L419.467 158.793L420.577 159.513L420.667 160.153L422.767 161.333L423.097 162.133L421.987 163.333L421.367 164.823L420.007 166.003L416.437 167.533L413.197 167.953L412.507 168.803L413.187 170.123L412.637 170.723L413.547 172.563L409.227 178.113L402.757 185.533L398.657 187.933L395.687 190.643L394.647 193.223L392.097 192.963L390.837 197.393L387.877 197.743L382.037 204.183L375.987 204.403L374.697 207.573L372.487 208.353L371.077 208.163L369.637 208.973L354.647 206.493L353.647 214.023L349.527 213.863L350.257 215.633L349.587 216.713L351.077 218.623L343.827 220.223L344.907 223.703L339.417 228.693L335.227 220.693L332.077 218.493L328.907 217.293L327.777 216.023L321.437 213.873L320.697 211.363L321.987 209.643L321.867 208.523L319.847 206.723L315.647 209.013L310.227 203.653L308.837 198.843L306.317 199.073L306.817 197.683L309.727 197.213L310.107 197.593L310.747 197.103L307.197 191.093L306.187 189.943L307.837 187.793L310.127 188.583L309.497 187.683L308.867 184.233L311.937 182.363L312.217 179.163L315.317 176.413L318.397 178.943L319.337 175.643L318.957 174.083L314.727 167.763L314.337 166.203L311.767 162.113L309.987 153.053L307.267 153.903L307.277 152.063L306.887 150.343L309.087 148.813L305.587 145.403L306.237 143.153L306.887 143.043V141.843L304.007 140.113L303.487 140.493L302.457 141.933L300.877 141.313L299.917 138.083L299.747 136.113L298.387 134.013L297.517 135.533L296.087 136.163L294.797 135.533L294.907 135.503L293.117 133.883L292.507 133.163L291.687 130.883L291.157 130.453L290.537 130.283L289.197 131.283L288.597 131.323L287.387 131.003L285.297 129.553L284.387 129.503L284.127 129.663L283.677 129.253L281.837 129.293L281.637 128.413L281.067 128.323L280.837 127.483L280.407 126.853L280.107 125.843L280.337 124.993L280.217 124.763L278.647 124.593L274.317 124.653L272.837 124.283L271.917 123.893L270.187 122.443L269.957 122.033L272.277 119.713L272.517 119.413L272.457 118.893L271.617 118.633L270.217 118.433L265.887 115.603L265.737 115.803L265.927 116.253L265.937 116.813L265.337 116.863L265.117 116.763L264.357 116.283L263.547 115.123L263.427 114.723L263.407 114.043L263.657 112.873L264.947 112.623L266.827 112.563L267.647 112.203L268.687 111.333L269.657 110.003L272.137 107.683L272.877 107.283L274.947 107.633L275.297 107.433L275.937 107.453L276.387 107.263L277.307 106.433L277.807 105.283L278.687 105.213L281.087 103.953L281.727 103.073L283.017 102.183L283.177 101.923L282.187 99.5227L281.377 98.1227V96.8727L281.277 96.6627L279.727 96.5227L278.857 96.2227L278.747 95.9327L278.697 92.9927L278.447 92.7227L276.897 92.4027L276.817 92.0627L276.247 91.8727L276.287 89.0727L276.527 88.7527L278.407 88.4027L278.957 88.0627L279.367 87.5827L279.767 86.6227L282.107 84.9527L283.217 83.6027L282.987 83.1127L282.427 82.5527L282.267 81.4327L283.097 81.3727L284.037 81.7427L284.297 81.1327L286.377 79.7627L287.047 79.9527L288.047 81.0727L288.987 81.2127L289.587 80.8427L290.697 79.6627L291.527 79.9127L291.747 80.1527L292.177 80.1827L292.757 80.5527L294.227 81.9727L294.637 82.0327L295.657 80.8727L296.157 81.0027L296.527 80.8227L297.587 80.7927L297.847 80.9327L298.797 80.4327L299.107 80.4427L300.417 82.0627L301.337 82.3427L302.347 81.7727L303.847 80.6027L303.887 78.6927L303.327 77.0227L302.707 76.9027L301.817 76.4827L299.747 76.5827L297.287 75.6027L296.517 74.8427L295.857 73.4827L294.727 72.6627L294.227 72.8227L294.097 73.6127L293.847 73.8027L291.827 73.8927L290.767 73.5727L290.167 72.7427L289.447 72.1727L288.607 71.9627L287.647 72.0627L286.487 71.9727L285.327 71.2327L285.047 70.5527L284.837 68.3027L285.167 67.8127L286.347 66.6427L286.547 64.9127L286.777 64.5027L287.627 64.3727L288.147 64.8427L289.107 64.8327L289.337 65.1627L289.447 65.7027L289.907 65.9527L290.407 65.9827L291.117 65.8727L291.847 65.5027L292.347 64.9527L293.017 64.6027L293.197 63.8027L292.567 62.1727L291.537 61.6327L289.827 61.7127L289.457 62.2427L288.677 62.6827L287.537 62.4727L284.827 62.3627L284.157 61.5527L283.787 61.3827L283.187 61.3527L282.447 60.9627L280.147 60.8127L280.027 60.6127L280.047 59.6627L280.207 59.1727L281.767 59.0827L281.977 59.3627L282.147 60.0127L282.347 60.1327L282.567 60.0127L282.697 58.1427L282.897 57.9327L283.927 57.5627L284.737 56.0927L285.697 55.3827L286.017 54.9227V54.2927L285.797 53.7527L284.617 52.7927L284.427 52.1627L283.667 51.9327L282.927 52.1227L282.347 51.6627L281.587 51.6227L281.457 51.1027L281.767 50.5027L282.497 49.7527L283.727 49.7827L284.837 49.5127L285.407 50.7527L285.947 51.0227L286.757 50.9627L286.847 50.7427L286.677 50.1027L287.157 48.9227L286.537 47.8127L286.757 47.1227L287.597 46.2427L287.727 45.8227L288.207 45.6127L288.967 45.6527L289.437 45.3027L290.727 45.4727L290.997 45.8727L291.397 47.6027L291.847 48.0027L292.547 48.0927L293.067 48.3927L293.367 49.4827L293.677 49.7527L294.217 48.3527L294.557 47.8527L295.407 47.6327L296.097 47.2727L296.337 47.9227L297.147 48.7627L297.537 48.4627L297.737 47.9127L297.697 47.4927L298.357 47.1727L298.467 47.3627L298.167 47.7627L298.287 47.9327L298.857 47.6527L299.397 47.9727L298.777 49.0627L298.747 49.3627L299.857 49.6627L300.207 50.0327L300.837 50.0227L301.717 49.9427L302.007 49.7227V49.2127L301.427 48.0127L301.247 47.3027L301.537 46.9327L301.967 46.9427L302.607 46.4127H303.187L303.857 46.9427L305.177 47.1627L305.547 46.9227L305.807 47.0527L307.697 47.1027L308.437 46.7127L308.997 46.6727L309.347 46.3927L309.677 46.4327L310.677 47.3827L310.327 47.8427L309.207 48.3927L309.167 48.6727L309.757 50.3327L309.997 50.6827L310.857 51.0427L311.497 51.5227L311.867 51.5427L312.097 51.0927L311.837 50.4327L312.017 49.9827L312.397 49.5527L312.707 48.7427L313.497 48.4227L313.757 48.0227L313.787 47.7227L314.667 47.0527L314.967 46.9827L315.387 46.2227L316.087 45.9627L316.327 45.6627L316.697 45.5727L317.057 45.0427L316.927 44.6527L317.017 44.4227L317.697 44.5427L319.217 44.3727L320.017 44.6827H320.947L321.787 44.9327L322.937 44.6927L323.447 44.4227L323.727 44.0627L323.877 43.1427L323.567 42.4527L323.697 42.0527L323.857 41.8927L324.537 41.7627L324.767 41.5327L325.297 41.5027L325.407 41.7527L325.667 41.8727L326.557 41.5327L328.577 41.8527L328.927 41.6627L329.977 41.4827L330.147 41.2227L330.607 41.4627L330.807 41.1027L331.117 41.2527L333.027 40.4827L333.247 40.2427L334.047 40.0827L334.877 39.6027L336.167 39.3027L336.327 39.0427L336.967 39.1527L337.667 38.7927L338.197 39.2627L338.487 39.0627L338.767 39.0927L338.907 38.9327L339.227 39.1527L339.507 39.0427L339.587 38.4427L339.917 37.9627L340.077 38.1727L340.357 38.1027L340.187 38.7227L340.247 38.8827L340.587 38.9427L341.157 38.4527L341.527 37.7427L342.017 37.9527L342.357 37.8127L342.747 38.1027L343.267 38.0027L343.577 38.0827L344.227 37.5427L345.027 37.6327L345.667 37.3127L346.397 37.3427L346.837 37.1827L348.417 37.3727L348.867 37.1427L349.077 36.7627L349.057 36.4127L349.217 36.2427L349.567 36.1727L349.837 36.3927L350.247 36.4627L350.617 36.1927L350.997 36.1527L351.567 35.8427L351.647 35.4827L352.057 35.1527L352.557 35.0827L352.797 35.2527L354.397 34.8527L354.537 35.0727L354.437 35.2227V36.3327L354.637 36.4027L355.697 36.1127L356.627 35.5927L357.827 34.6727L358.627 34.3027L358.957 34.3527L359.897 35.0427L360.687 35.8027L361.557 37.0027L363.707 36.9427L364.037 36.5127L364.047 36.0827L363.517 33.9727L363.067 33.2927L363.457 32.0427L363.287 30.8627L363.537 30.5427L364.997 29.5227L366.327 28.9827H366.917L368.317 29.3727L368.737 29.2527L368.787 28.7227L368.107 27.7927L368.177 27.2427L368.467 26.8827L369.117 26.6327L370.757 27.0827L371.657 27.0627L372.407 27.3827L373.547 28.1627L374.047 28.2227L374.467 28.0027L374.967 27.3627L375.267 26.5427L375.327 25.9327L375.687 25.2127L376.877 24.6527L377.737 24.5727L378.027 24.6427L378.237 24.9827L377.847 26.4127L377.867 27.3027L378.467 27.8027Z"/>
        <path d="M244.327 301.883L245.007 301.383L245.327 300.653L245.687 300.203L246.367 300.563L246.727 300.973L247.357 301.203H248.267L248.677 301.973L248.447 302.883L248.627 304.423L248.537 305.423L248.037 306.053L248.627 307.273L249.037 308.863L249.767 309.313L250.357 309.903L250.677 310.763L250.707 311.533L241.067 304.553L241.167 303.563L241.577 303.293V302.343L241.807 301.893H242.437L242.977 302.163L243.787 302.193L244.327 301.883ZM260.137 301.163H258.067L258.207 297.653L259.857 297.243L263.097 297.033L265.577 297.313L266.057 298.343L267.917 298.683L269.917 298.753L270.197 299.233H265.027L262.267 300.753L260.137 301.163V301.163ZM301.047 243.423L302.647 246.473L305.067 246.103L310.427 252.923L309.587 254.863L315.177 255.743L316.027 256.963L317.497 256.493L312.147 260.683L320.177 259.183L322.487 261.383L325.417 263.353L328.007 263.153L333.767 266.373L335.647 265.213L336.497 266.073L346.247 269.893L348.247 269.943L358.017 275.203L362.067 275.553L365.607 279.553L369.197 281.543L394.577 288.433L402.277 288.003L403.217 288.283L403.527 290.983L403.257 293.293L406.327 295.663L406.917 297.553L406.357 298.793L405.177 300.463L404.567 302.513L404.387 305.383L403.147 309.923L406.837 312.983L409.927 314.303L410.047 333.403L409.667 333.943L409.437 335.623L411.507 337.653L412.687 337.273L414.917 338.523L414.967 339.423L417.197 342.133L422.527 345.943L421.157 347.303L420.407 346.693L419.227 347.173L418.227 348.233L418.637 348.813L419.207 350.293L418.977 353.173L418.147 353.573L416.227 351.903L416.237 356.123L414.387 358.013L414.547 358.903L414.147 361.093L412.177 361.653L412.757 364.223L413.587 363.713L413.277 362.043L414.347 361.433L414.137 362.643L415.267 362.593L414.927 364.013L415.677 365.813L417.057 365.443L416.977 366.323L415.077 367.543L408.637 370.763L403.447 372.683L398.587 376.343L393.117 381.863L390.387 380.183L382.537 388.333L380.847 387.923L380.697 372.143L375.417 374.623L372.627 365.643L371.997 363.093L367.427 359.033L365.067 356.663L362.667 351.363L362.247 350.883L361.577 350.503L360.417 350.523L359.557 350.743L350.367 355.113L349.927 355.193L338.247 354.453L330.677 353.683L327.947 353.243L319.367 354.753L301.707 358.223L301.357 358.193L300.677 357.543L287.117 340.803L284.567 338.233L283.637 335.273L274.537 328.703L275.507 327.843L276.097 327.523L276.777 325.573L277.047 323.623L276.597 321.543L275.777 318.873L275.007 317.923L273.827 317.833L273.417 316.563L272.557 315.833L272.057 314.153V312.973L272.557 311.843L272.507 308.173L272.057 306.543L271.147 305.863L271.377 304.863L272.107 303.183L272.197 301.553L271.467 298.653L270.517 297.613L270.377 295.663L271.377 294.983L271.917 292.133L272.327 291.593L272.557 290.623L275.317 289.943L275.997 288.993L276.317 287.773L278.127 286.093L280.167 285.733L281.567 284.463L283.377 283.783L285.277 282.653L286.497 280.573L286.817 277.263L286.757 275.583L286.007 275.473L284.937 276.333L281.947 275.803L279.277 275.913L277.357 273.563L277.467 270.253L277.787 268.863L276.397 268.433L275.437 267.583L272.767 267.693L272.657 268.653L273.727 269.183L274.687 269.293L275.967 270.253V271.533L275.217 271.963L274.467 272.823L273.397 273.353L272.117 272.713L270.617 272.283V275.383L269.897 275.893L269.627 274.953L269.757 272.283L269.227 271.213L268.287 270.273H266.947L262.537 273.213L261.737 274.283L261.617 276.283L262.197 277.003L262.877 278.503L263.327 279.183L264.687 279.773H265.777L266.687 279.323L267.817 279.003L270.217 278.823L270.757 279.863L271.617 280.543L272.797 280.953L274.297 279.913L275.027 279.003L275.887 278.823L276.067 280.593L277.607 283.173L277.567 285.163L277.157 286.613L275.077 287.923H273.987L271.407 288.423L270.187 288.013L269.057 286.793L268.017 286.203L264.937 285.573L263.397 285.393L262.537 285.893L260.767 287.523L259.407 287.613L258.777 287.253L259.137 285.353L258.727 284.673L258.587 283.453L258.637 281.953L257.867 281.003L256.687 280.773H253.427L252.797 280.913L252.847 282.003L254.977 285.403L255.477 286.533L255.117 287.843L255.567 291.283L255.337 292.643L254.797 293.553L254.167 293.873L253.487 293.513L252.667 295.913L251.947 296.503L251.087 296.183L249.997 296.273L248.907 296.683H247.867L247.727 295.953L247.777 295.003L248.007 293.913L249.137 292.193L249.957 291.283L250.317 290.463L249.497 289.873L248.547 289.373L247.687 289.873L246.647 290.913L245.427 291.003L244.247 290.823L243.707 290.373L243.317 290.223L248.617 283.703L252.887 277.293L255.117 274.843L256.757 272.283L264.587 265.013L270.547 264.523L271.107 258.363L279.247 259.033L285.927 241.143L297.737 238.413L301.047 243.423V243.423Z"/>
        <path d="M79.8669 322.543L79.9469 322.653L80.4269 322.363L80.7169 322.493L79.7469 323.113L79.4169 323.523L79.5069 323.893L79.3569 323.933L79.1969 323.493L79.4169 322.703L79.2369 321.573L79.3369 321.453L79.7469 322.003L79.8669 322.543V322.543ZM81.1969 319.213L81.4769 319.293L81.7569 319.133L82.0169 318.893L82.1769 318.363L82.3469 319.063L82.6069 318.853L82.6869 319.023L82.5469 320.263L82.6569 320.673L83.5369 321.123L82.5069 320.903L82.3669 321.173L81.7469 321.313L81.7269 321.093L82.1769 320.703L81.6469 320.503L81.9469 319.983L81.8869 319.673L81.2269 319.633L80.4069 318.653L80.3769 318.433L80.8769 317.973L80.9569 318.093L80.6569 318.493L81.1969 319.213V319.213ZM69.1769 315.883L69.8969 316.063L70.2869 316.423L69.2669 316.563L68.7869 317.203L68.7369 317.963L69.0169 318.663L69.1169 319.523L69.3569 319.893L69.5869 319.923L69.7069 319.623L69.7969 319.723L69.5569 320.473L70.0369 321.163L71.1969 321.743L72.2369 321.343L72.3969 321.383L72.4569 321.533L72.0769 322.353L71.9569 322.373L71.6769 322.043L70.2769 321.843L69.6469 321.473L68.8869 320.263L68.2369 318.073L68.6669 316.743L68.6969 316.093L69.1769 315.883V315.883ZM74.3769 315.483L75.1569 315.613L75.4169 316.313L75.2669 317.053L75.4369 317.593L74.9269 318.493L74.9069 318.983L74.7169 319.383L74.2769 319.693L73.9869 319.723L73.5869 320.163L73.4569 320.463L73.6169 320.883L73.4769 320.993L73.2469 320.803L73.1169 320.243L73.2169 319.973L73.0769 319.383L73.3469 318.803L73.3169 318.343L73.2069 318.073L72.7469 317.683L72.8369 317.143L72.5369 316.533L72.9669 316.013L73.6569 316.063L74.3769 315.483V315.483ZM119.347 303.133L119.487 303.153L119.637 302.873L119.847 302.813L120.077 302.983L120.607 304.403L120.627 305.013L120.867 305.573L120.757 305.953L120.867 306.553L120.827 306.683L120.157 306.743L120.427 307.143L120.377 307.253L119.377 306.853L119.167 306.243L118.657 305.473L117.987 304.823L117.717 304.353L117.927 304.043L118.847 303.323L118.897 303.203L118.577 302.903L118.547 302.643L119.037 302.843L119.347 303.133V303.133ZM122.697 295.983L127.147 297.083L129.767 297.223L130.387 295.673L133.387 296.073L134.687 295.213L136.077 295.023L138.427 294.013L140.397 292.823L141.657 291.613L139.617 290.413L144.037 287.123L145.087 285.113L144.817 283.873L147.817 284.243L148.207 283.603L149.587 283.283L150.777 283.343L152.037 283.043L153.837 282.323L156.777 282.253L160.497 280.803L168.177 280.003L170.327 280.303L174.907 275.763L177.257 279.093L178.517 279.873L179.087 279.693L179.387 279.193L179.947 278.893L180.897 279.023L181.567 281.033L181.257 282.573L181.577 283.463L183.027 283.883L184.027 284.473L185.017 283.793L185.877 284.173L186.387 285.733L188.447 286.353L189.787 285.663L190.697 286.513L192.217 286.403L193.957 287.443L195.717 292.293L198.497 312.863L184.737 317.383L184.787 415.013L182.207 414.913L181.067 416.053L180.507 415.623L180.227 415.563L178.347 415.913L177.617 416.283L177.417 416.833L177.187 417.023L176.907 416.803L176.757 416.343L176.407 415.903L176.207 415.993L176.197 416.533L175.827 416.793L175.427 416.693L174.447 416.113L173.307 415.073L172.007 413.413L170.897 412.513L170.017 411.313L168.227 408.363L166.777 404.943L165.867 403.603L164.787 402.543L164.487 402.063L164.407 401.533L164.587 399.743L163.707 398.473L162.217 396.813L154.797 391.563L151.567 389.433L150.617 388.863L149.667 388.493L145.097 388.633L137.967 389.773L134.747 390.653L129.147 393.123L127.227 393.783L125.807 394.713L119.387 400.473L115.757 403.483L115.787 402.963L116.617 401.003L116.727 399.783L116.697 398.943L116.437 397.943L115.647 396.883L115.797 395.753L115.327 395.253L115.617 393.213L115.977 392.493L117.357 390.813L118.227 389.303L119.977 384.883L120.397 382.803L120.177 381.613L119.697 380.683L118.057 378.813L117.947 378.473L118.317 377.913L118.237 378.413L118.467 378.923L119.497 379.743L120.227 380.723L120.827 382.353L121.317 381.823L121.567 381.143L121.677 379.753L121.497 378.393L121.107 378.073L120.247 378.063L119.827 377.693L119.157 377.973L119.447 377.493L119.027 376.353L116.347 375.563L115.547 375.433L113.997 375.663L113.307 376.163L112.897 376.803L112.777 376.793L111.707 375.043L111.137 374.643L110.727 374.543L110.037 374.573L109.717 374.453L108.607 374.623L107.077 375.083L105.897 375.673L105.497 375.663L105.147 375.333L103.887 373.293L103.747 372.783L103.027 371.663L102.707 370.483L100.467 368.363L100.707 368.103L100.757 367.623L100.357 366.373L99.3769 366.283L97.5169 366.663L97.2769 366.923L96.1869 366.873L93.5569 367.303L93.0169 367.143L92.9369 366.723L93.0769 365.563L93.8569 362.293L93.9269 360.163L93.7769 358.703L93.4569 358.143L93.3269 357.213L92.9369 356.253L92.0369 355.403L91.8869 354.933L91.2669 354.533L91.0369 354.453L90.8869 354.633L90.7769 354.543L90.0269 353.273L89.0669 351.033L88.2169 349.993L87.4869 346.053L86.5469 344.673L86.2969 344.433L85.5069 344.243L85.1269 343.783L85.2769 342.003L84.9969 340.733L84.3769 339.173L83.3769 338.193L81.2869 337.253L79.8169 336.883L76.1969 336.603L74.9969 336.103L73.6069 335.143L73.0269 334.213L72.9369 333.833L72.8869 329.943L72.6269 328.793L72.6469 328.693L73.1469 329.513L73.1669 329.893L73.4069 329.843L74.3569 327.083L75.0969 327.203L75.4769 327.113L75.6969 327.333L76.2969 327.283L77.1669 327.633L78.2569 327.543L79.1569 327.693L79.7969 327.363L80.5069 327.933L82.5269 328.103L83.4269 327.943L83.7869 327.343L84.0469 327.283L84.4569 327.563L85.8269 327.963L86.3769 328.813L86.5669 328.843L86.7669 329.283L87.2169 329.493L87.7369 329.393L87.4969 329.853L87.7269 330.413L89.4669 331.613L91.5369 331.653L92.1469 331.163L92.5869 330.543L93.0369 330.293L93.1969 329.843L94.8769 329.403L95.1069 329.393L95.1969 329.583L94.9269 330.013L94.9569 330.203L95.1669 330.123L95.7069 330.723L96.1369 330.623L96.3469 330.423L96.3669 330.103L97.4069 330.563L98.0469 330.333L98.1869 330.113L97.9969 329.673L97.2569 329.083L96.1069 328.573L93.6869 328.593L92.9269 328.803L92.9469 328.463L93.2769 328.133L93.2069 327.763L92.7069 328.103L92.6169 328.003L92.6569 327.073L92.0969 325.933L91.0369 324.393L90.3969 324.163L89.3569 323.183L88.4069 322.693L88.3769 322.523L87.7869 322.023L87.4269 321.883L87.3769 322.223L86.9369 322.453L86.1469 322.373L85.3469 322.503L84.6569 322.103L84.6069 321.833L85.3369 322.083L85.1369 321.783L85.2469 321.293L85.5269 320.883L85.1969 320.633L85.1869 320.183L86.7669 317.993L87.0269 317.823L87.8569 317.443L88.1569 317.413L88.6669 317.653L88.8669 317.573L90.4569 315.933L91.1269 315.583L91.4769 315.613L92.1469 315.993H92.5169L92.6569 315.223L92.4269 313.073L92.6269 312.083L92.7669 311.753L93.0469 311.533L93.2769 310.543L93.9169 309.463L94.3869 309.103L94.6469 308.583L95.0469 308.483L95.7169 307.533L96.0269 307.333L96.4269 307.893L96.6569 308.003L98.3069 307.913L98.9569 307.743L99.1769 307.403L99.8669 307.213L101.217 306.393L101.397 305.953L102.067 305.103L102.457 305.133L102.587 305.393L102.987 305.623L103.237 305.433L103.857 305.853L104.927 305.973L105.647 306.513L106.017 306.583L107.017 306.483L108.067 306.063L108.807 306.043L109.797 306.363L111.247 306.153L112.537 306.173L113.117 306.063L113.987 305.653L114.557 305.673L115.707 305.373L116.567 305.703L118.277 305.783L118.537 306.053L118.857 306.813L119.637 307.403L120.527 307.503L120.807 307.453L120.797 307.193L122.037 307.793L122.737 307.833L122.747 307.563L121.417 306.953L121.687 306.853L121.767 306.573L121.537 306.213L121.507 305.703L121.107 305.193L120.997 304.803L120.987 304.073L121.167 303.813L122.197 304.253L123.147 304.973L124.157 305.133L124.967 306.093L125.907 306.753L126.037 306.593L125.147 305.783L124.197 304.323L123.907 304.203L123.177 304.283L122.787 303.673L121.567 303.093L121.687 302.773L122.137 302.503L121.947 302.193L122.287 301.973L123.027 301.673L123.607 301.593L124.297 301.753L124.407 301.633L123.987 300.853V300.403L123.647 300.503L123.237 301.203L122.317 301.633L121.887 301.983L121.737 301.893L121.847 301.573L121.627 301.423L121.717 300.923L121.117 300.843L121.627 300.703L121.277 300.523L121.267 300.353L121.897 299.803L122.307 299.723L122.267 299.313L122.957 299.243L123.177 299.653L123.867 300.073L124.027 300.033L122.937 298.553L121.987 297.803L122.467 297.673L122.867 297.283L122.817 297.043L122.477 297.033L122.487 296.783L123.017 296.653L123.087 296.813L123.317 296.713L123.337 296.853L123.527 296.883L123.857 296.723L124.057 296.433L123.557 296.533L122.697 295.983V295.983Z"/>
        <path d="M588.017 36.0227L588.897 35.9827L589.317 36.2127L589.537 36.5727L589.717 38.0127L589.097 38.9627L589.237 40.0627L589.157 40.4927L588.357 41.4027L587.507 41.8727L587.337 42.9527L586.737 43.1827L585.507 44.0827L585.137 43.9027L584.617 42.9427L583.957 43.2027L583.507 43.1527L582.697 42.6727L581.677 42.5527L581.267 42.5627L581.087 42.6927L581.017 43.2427L581.177 43.9027L582.467 45.6427L582.637 47.0227L583.427 48.4927L587.597 52.5427L603.277 65.2327L608.877 70.6027L609.897 71.8027L613.407 77.6127L616.467 82.2527L620.097 88.8427L620.237 88.7027L622.437 92.9627L622.277 93.0727L628.567 104.193L629.717 106.873L631.437 109.533L631.677 110.203L632.457 111.273L633.777 113.893L633.947 113.793L634.137 114.163L633.987 114.283L635.527 117.523L635.907 117.903L635.887 118.173L637.827 122.223L636.367 122.393L635.847 125.443L632.867 126.203L633.387 127.903L630.877 130.363L630.337 129.713L626.447 130.283L626.537 132.143L627.537 131.973L627.237 133.223L627.417 134.703L626.407 134.353L622.427 136.883L619.967 137.653L619.527 136.643L618.337 137.173L618.087 138.293L615.987 139.413L615.537 139.053L613.877 140.663L616.207 144.033L616.737 147.133L618.217 147.583L619.117 148.943L620.697 150.183L621.997 150.853L626.017 153.523L625.317 160.333L627.157 160.853L627.717 164.813L626.387 166.193L623.047 172.263L620.367 173.493L617.217 172.713L608.867 169.233L607.717 167.213L606.427 167.973L604.187 166.373L605.737 164.243L604.587 160.153L601.387 158.103L597.327 157.943L593.887 154.303L590.137 155.273L588.137 157.223L586.927 162.043L587.047 165.033L586.317 166.313L584.137 165.013L581.947 165.253L580.417 166.133L579.967 165.793L579.067 168.213L578.147 168.433L575.627 166.953L568.797 168.833L567.937 167.913L567.007 168.273L566.737 169.253L566.047 169.643L560.347 169.453L559.407 170.713L555.387 173.643L553.437 174.223L553.067 173.393L551.817 173.453L551.147 171.163L552.387 170.333L552.357 169.683L555.007 168.563L555.207 168.853L556.257 168.513L555.967 167.953L556.627 167.673L556.307 166.463L554.067 165.573L553.537 164.063L554.217 163.663L552.717 161.083L551.597 161.033L548.877 158.133L547.517 161.543L546.227 158.233L547.347 157.363L546.277 156.023L543.097 155.403L542.837 154.583L541.267 155.903L538.467 156.133L535.597 156.883L532.737 153.733L534.177 152.373L533.337 151.073L533.867 149.973L534.907 149.733L534.797 146.703L535.227 144.393L536.087 141.753L535.237 140.443L535.157 138.183L528.457 135.753L530.557 133.273L530.847 131.053L535.177 128.223L537.157 128.783L537.917 127.833L538.957 127.723L539.437 126.993L537.537 125.903L535.247 125.693L534.257 123.403L530.697 125.153L530.797 119.263L531.407 118.543L534.137 116.393L535.327 116.163L534.917 115.293L534.467 95.3327L533.447 95.1827L533.387 94.6227L533.277 93.3627L529.647 93.0927L528.657 90.4727L529.057 89.2827L529.957 90.5227L531.377 90.7327L532.207 92.5127L533.167 92.1027L532.897 89.0227L534.137 88.5227L533.947 86.8327L534.937 86.3027L533.847 83.3527L531.927 84.0227L531.037 83.7427L529.867 86.9027L527.237 86.9427L526.747 84.3727L528.127 82.7527L527.487 81.4027L525.337 82.9127L524.867 82.4227L526.027 81.4727L526.767 79.6227L527.877 77.9627L527.747 76.8127L528.867 76.2727L528.807 75.5627L529.807 75.0227L528.897 73.6027L527.887 74.2827L527.577 73.5327L526.467 73.9427L526.397 74.6427L523.617 77.0727L523.137 74.1827L523.587 71.1127L525.227 71.9127L525.967 71.1527L524.367 68.6227L523.357 66.3627L525.877 63.8927L526.207 62.4327L527.207 62.6827L527.697 60.5627L529.057 60.7227L530.777 61.8027L532.127 59.7727L535.447 60.5227L535.247 62.7827L536.947 62.9427L537.307 61.2527L538.707 61.5527L538.507 62.2227L539.207 62.5027L539.197 63.7927L539.547 64.0027L539.607 64.2327L539.477 64.9827L541.847 65.8727L543.417 62.0027L542.577 61.5127L543.157 58.6227L546.447 59.1627L547.317 56.2327L548.417 56.4127L548.977 56.1327L549.297 55.5727L549.587 54.2927L549.757 54.1527L550.417 54.3927L553.047 54.3727L553.317 54.5327L553.737 55.3227L554.177 55.1127L556.487 53.2827L557.627 52.2027L558.497 51.8127L560.857 49.9827L562.217 49.2527L562.777 48.5727L562.767 47.8927L561.117 45.5327L563.697 44.2027L565.067 44.7827L565.287 44.7427L577.217 39.1827L577.297 38.8927L576.797 38.2727V38.0827L577.347 36.4627L577.517 36.4127L579.547 37.3227L581.647 37.4927L582.587 37.4427L583.637 36.7527L585.457 36.7927L586.557 35.6627L587.077 34.4327L588.107 34.3427L589.467 33.5227L590.527 33.0827L590.877 33.1327L591.007 33.9927L590.927 34.1427L587.987 35.7427L588.017 36.0227Z"/>
        <path d="M440.107 2.24269L440.597 3.41269L440.847 3.54269L442.107 3.21269L443.407 2.61269L444.237 2.49269L444.887 2.60269L446.487 3.34269L447.047 3.11269L448.497 3.02269L449.957 3.28269L451.957 4.28269L453.127 4.66269L453.717 5.05269L454.147 5.59269L454.837 7.61269L455.267 8.02269L456.257 8.40269L457.397 8.55268L458.987 10.2127L459.317 10.3627L460.627 10.4027L460.957 10.2327L461.957 9.10268L464.087 8.18269L464.377 7.83269L465.057 5.91269L465.537 5.40269L466.297 5.41269L467.557 6.14269L468.587 6.16269L468.967 6.00269L469.567 5.32269L470.017 5.12269L471.957 4.74269L472.317 4.81269L472.507 6.19269L472.967 7.12269L473.667 8.51268L474.467 9.24269L474.727 10.4427L475.417 11.1427L476.087 12.4427L476.227 13.2827L476.067 15.5827L476.197 16.7927L475.777 17.8127L475.707 18.6627L475.787 18.9927L476.707 20.3027L476.777 21.9327L476.937 22.5227L477.587 23.7927L478.457 24.7227L480.387 25.2227L481.567 26.1527L481.657 26.4227L481.677 27.7627L480.157 28.2327L479.807 28.5127L479.657 28.8327L479.457 30.3427L479.567 31.7427L479.837 33.5627L480.307 35.1927L480.137 36.5327L479.737 37.5527L479.567 37.6927L479.257 37.6727L477.567 37.3427L476.377 36.7127L476.217 36.7427L476.097 36.9827L476.107 38.2527L476.247 38.5527L476.597 38.8327L477.607 39.0827L477.807 39.4127L477.927 40.1527L477.217 41.1127L477.147 41.4027L477.367 41.7427L477.947 42.0927L478.247 42.4527L478.527 43.0827L478.647 44.1927L478.947 44.4527L479.657 44.6627L479.887 44.5827L481.347 43.3127L481.797 42.3627L482.667 42.1827L485.527 43.0827L485.717 43.5227L485.587 44.2927L485.787 44.6527L487.147 44.3927L488.517 44.8527L488.967 44.5127L489.787 44.2827L490.287 43.6727L490.267 43.0527L489.877 41.9027L490.227 40.7027L490.687 40.0327L493.217 40.3527L495.657 40.8927L496.347 41.4627L496.397 42.1127L497.087 42.5027L497.027 43.1327L498.387 43.9027L498.537 43.8527L498.847 43.3527L498.977 42.1327L498.337 41.4527L496.827 40.6527L497.107 39.6527L497.677 38.6927L497.187 37.9027L496.277 37.1927L495.947 36.4427L496.037 36.2927L496.457 36.1927L497.877 36.2127L498.637 36.3827L500.307 37.6627L500.697 38.8627L500.557 39.7827L501.457 40.3527L500.997 41.7827L501.187 42.0027L502.917 43.1327L504.757 43.6427L504.817 44.5827L503.627 44.3227L503.307 44.7327L502.367 44.7827L502.247 45.3227L502.617 45.8727L502.597 46.2427L503.327 46.8127L503.347 46.9727L502.527 49.7827L503.537 50.8727L504.527 51.2127L504.777 51.0827L505.567 49.1727L505.957 48.5827L509.217 49.9027L509.007 48.4827L508.107 46.7127L507.167 46.5227L506.337 46.5727L505.977 46.8327L505.307 46.7027L505.767 44.6327L506.627 44.2027L506.867 43.8227L510.387 44.1327L511.037 44.2427L511.527 44.7327L514.237 45.0027L514.177 46.4727L515.437 46.6727L515.957 48.3727L516.247 48.5527L518.507 49.0327L520.037 49.5427L520.217 49.7827L522.397 49.7027L522.547 49.4527L522.417 48.7827L522.557 48.5727L523.177 48.8027L523.967 49.4727L524.837 49.9027L524.997 49.8227L525.037 49.5627L524.527 48.3827L524.537 48.0427L526.037 47.5427L526.857 46.8527L527.057 46.3927L526.787 45.8827L526.897 45.7827L528.047 45.9027L528.087 46.2627L529.167 46.4527L528.657 49.8827L528.017 52.7727L523.627 52.1127L522.977 53.3227L523.457 54.3727L522.797 54.6827L521.367 54.9727L521.597 55.9227L520.997 58.4827L519.637 58.7027L519.657 59.7327L520.077 59.8127L520.097 59.9327L519.397 62.2427L521.457 62.9827L521.667 63.3627L522.377 63.5827L522.387 64.1427L521.967 65.3627L522.307 65.7727L523.357 66.3627L524.367 68.6227L525.967 71.1527L525.227 71.9127L523.587 71.1127L523.137 74.1827L523.617 77.0727L526.397 74.6427L526.467 73.9427L527.577 73.5327L527.887 74.2827L528.897 73.6027L529.807 75.0227L528.807 75.5627L528.867 76.2727L527.747 76.8127L527.877 77.9627L526.767 79.6227L526.027 81.4727L524.867 82.4227L525.337 82.9127L527.487 81.4027L528.127 82.7527L526.747 84.3727L527.237 86.9427L529.867 86.9027L531.037 83.7427L531.927 84.0227L533.847 83.3527L534.937 86.3027L533.947 86.8327L534.137 88.5227L532.897 89.0227L533.167 92.1027L532.207 92.5127L531.377 90.7327L529.957 90.5227L529.057 89.2827L528.657 90.4727L529.647 93.0927L533.277 93.3627L533.387 94.6227L525.867 94.0627L524.477 91.3927L523.027 91.4627L522.787 90.1827L520.147 90.2427L516.427 88.3527L513.937 89.4127L513.397 83.6627L512.577 82.7327L512.567 80.3627L512.157 79.3327L511.497 79.3927L510.867 80.2927L508.767 80.3127L506.957 81.2127L506.127 80.4327L502.377 81.2627L501.467 83.6427L496.867 83.9927L491.197 83.2827L490.937 82.0227L489.997 80.9627L489.977 79.8627L491.217 79.3027L490.597 77.5927L491.227 75.3127L492.007 74.1427L487.977 69.7627L488.097 68.5327L486.117 68.4827L485.467 69.7927L484.257 69.9627L483.797 70.6027L483.257 70.6927L482.527 71.4527L480.807 71.4327L480.597 70.8527L477.457 70.2927L477.747 68.3927L477.487 68.3727L477.567 67.4127L469.357 67.6427L468.887 70.3527L467.127 70.6127L467.487 72.9727L465.597 73.2227L465.307 71.6827L463.327 69.1827L463.227 68.6227L462.547 68.5727L462.247 69.0927L458.447 69.1927L459.027 68.6827L458.947 67.7227L459.767 67.6527L459.547 66.8027L460.387 66.3227L460.217 64.5227L458.827 65.0927L456.417 64.4827L455.977 65.1327L455.317 64.8027L455.787 63.7427L455.567 60.4127L454.497 60.0427L454.307 58.5027L450.087 58.4327L449.357 59.2127L448.407 59.2727L447.947 60.2027L446.867 59.9727L446.507 61.6027L445.687 61.6827L446.017 63.2227L447.097 63.4527L446.467 64.9127L445.127 64.5327L445.077 63.0127L444.727 61.8827L443.917 61.6727L443.687 60.8327L442.467 60.5927L442.407 59.2027L440.497 59.0527L440.557 60.7227L437.817 60.9227L437.727 59.9427L435.817 59.8027L435.647 60.6127L434.147 60.5027L434.787 61.5127L434.627 62.0527L435.147 62.6427L434.707 63.1627L431.847 63.0827L431.907 64.7327L432.857 64.6727L432.257 65.8627L431.747 65.2727L430.757 66.0227L430.717 66.8427L430.157 67.0727L429.337 67.1527L428.747 68.0627L430.147 70.0927L430.237 71.1927L431.307 71.5527L431.917 72.8227L434.087 72.9927L433.837 75.2927L435.187 75.4027L435.527 76.5127L435.457 77.8727L434.767 78.0927L435.907 79.6727L432.917 82.4327L433.837 85.6227L432.767 85.4027L434.417 87.2827L432.757 88.1127L432.227 87.9327L431.367 88.8127L430.697 88.7627L430.367 89.9527L429.557 90.0327L428.167 90.8727L427.797 92.7327L427.257 92.8227L426.767 94.4027L424.627 94.1127L423.797 94.5927L423.037 96.2827L420.207 96.2227L420.637 98.4027L421.827 98.8827L422.047 99.8327L419.617 102.483L418.847 101.893L418.257 102.923L418.757 103.623L417.627 104.743L417.097 104.443L415.047 102.563L412.277 101.443L411.137 100.023L406.817 100.143L407.037 106.833L402.927 105.373L401.687 106.083L399.537 105.813L397.567 104.753H391.337L391.197 101.673L387.497 102.243L384.597 103.533L382.947 100.073L379.817 99.8827L380.057 89.6527L382.127 89.1127L381.997 85.4427L382.407 85.4727L382.247 82.4727L381.287 82.4127L380.587 79.2327L381.447 78.1927L383.497 78.3327L384.767 77.3227L387.617 77.9227L388.107 75.7627L385.177 73.9327L384.977 65.2727L381.697 64.9227L380.847 62.3827L381.717 61.2027L383.297 59.6527L383.257 54.3927L380.767 54.9327L378.737 48.4127L383.817 45.7327L385.577 45.5627L386.127 45.0327L385.067 42.2227L383.707 42.0927L380.037 39.7927L383.767 38.4627L381.557 32.3827L382.117 31.5827L381.707 30.9827L380.707 27.1927L385.477 25.3627L391.537 23.8727L393.057 24.1527L393.957 22.9627L394.267 22.7927L397.257 22.3527L399.137 22.5027L399.927 21.6627L401.317 21.5027L403.637 20.9427L403.857 20.7127L404.047 19.6527L404.287 19.3927L404.717 19.4427L405.577 19.9427L407.627 19.8727L408.917 20.3527L409.427 20.1927L409.837 19.8727L410.567 19.8627L412.997 18.8527L413.297 18.2627L413.587 16.8527L413.887 16.4127L414.527 15.8827L415.027 15.6827L415.827 15.7227L418.047 16.8227L419.527 16.4427L421.507 16.3227L421.797 16.0227L421.587 15.3227L421.847 14.1427L422.377 13.3327L423.177 12.5727L422.627 12.0827L422.387 11.6127L421.537 10.6227L421.377 10.3027L421.527 9.53269L421.027 8.74269L421.047 8.57269L422.527 8.54269L423.247 8.22269L423.527 8.29269L424.257 8.89268L424.507 8.79269L424.797 8.38269L425.127 8.26268L426.957 8.47268L428.827 8.07269L429.237 8.48269L429.577 8.51268L429.897 7.92269L430.157 6.41269L430.347 6.09269L430.897 5.83269L431.257 5.43269L431.417 4.67269L431.717 4.22269L431.657 3.37269L432.097 2.86269L432.457 2.74269L433.387 2.94269L436.487 5.01269L436.897 5.14269L437.117 4.94269L437.277 4.48269L436.987 3.33269L436.437 2.71269L436.127 2.65269L435.647 2.88269L435.467 2.75269L435.377 1.34269L435.537 0.692686L436.027 0.252686L436.737 0.272686L438.087 0.682686L439.707 1.70269L440.107 2.24269Z"/>
        <path d="M641.687 130.353L642.077 130.973L643.407 134.123L646.437 140.153L646.617 140.773L649.057 145.683L649.407 146.703L649.557 146.313L649.807 147.013L651.127 149.323L651.947 151.113L651.677 149.183L651.767 148.283H652.067L652.207 148.833L654.157 148.823L654.117 147.113L654.297 146.553L655.047 146.463L655.287 145.913L656.667 145.873L656.717 145.673L656.987 145.603L657.727 145.633L658.757 144.463L659.517 144.453L659.447 143.863L659.707 142.703L659.697 141.183L659.627 140.553L658.877 139.763L658.967 137.323L659.587 137.183L662.497 137.293L662.657 136.813L662.667 135.463L662.967 134.623L663.447 134.163L665.647 134.813L666.337 135.093L666.907 135.543L667.957 135.763L667.837 136.123L668.067 136.413L669.817 137.063L670.817 137.823L671.297 137.503L671.797 136.703L672.237 136.863L672.627 137.453L672.637 138.643L672.217 140.583L671.307 142.033L671.197 143.063L670.917 143.793L671.007 144.913L672.887 144.973L676.077 143.763L677.407 143.783L677.487 144.193L677.657 144.213L677.727 144.373L677.757 145.173L678.067 145.303L678.247 146.143L677.827 146.713L678.077 147.213L678.517 147.293L679.087 148.783L679.117 149.163L678.547 150.343L678.537 150.943L679.117 151.083L681.827 151.203L684.627 150.663L684.757 150.573L684.847 149.363L684.957 149.273L685.237 149.423L685.207 149.933L686.547 149.153L688.977 149.503L689.367 149.673L690.947 151.053L691.957 151.363L693.037 151.253L693.417 151.043L694.007 150.313L694.297 150.233L695.197 150.323L696.117 150.163L696.927 150.393H697.727L698.867 150.823L699.497 150.853L699.857 150.743L701.827 149.483L702.657 148.633L702.847 148.193L702.867 146.703L703.167 145.373L703.947 145.153L705.667 145.853L706.787 146.123L707.837 146.193L708.347 145.883L708.677 145.323L710.087 143.943L710.297 143.403L710.167 142.663L710.427 142.513L710.947 142.583L711.167 142.823L711.527 142.923L711.797 143.573L711.917 143.683L712.087 143.633L712.307 144.003L713.187 143.333L714.317 143.223L716.037 143.633L716.577 143.213L716.187 143.753L716.327 144.093L717.747 144.713L718.447 144.623L719.507 144.873L720.627 145.393L721.997 146.583L723.447 146.743L723.997 146.943L724.377 147.203L726.937 150.103L727.247 151.983L727.447 152.343L728.707 153.713L729.307 154.853H729.457L730.367 155.693L731.367 157.113L732.267 157.973L732.547 158.493L732.657 158.913L732.127 159.823L732.097 160.393L733.017 163.263L732.987 163.703L732.577 164.603L732.587 164.953L733.117 165.943L734.317 167.313L734.547 167.453L735.987 167.393L736.947 166.563L737.287 166.533L738.877 167.983L739.517 168.283L740.967 168.583L741.487 168.923L742.297 169.743L742.677 169.923L743.827 170.033L744.117 170.443L744.207 171.173L745.617 171.203L746.107 171.353L747.387 172.403L747.927 173.263L748.087 174.003L747.857 174.283L747.407 173.983L747.197 174.223L747.257 174.663L746.987 175.323L747.057 176.473L747.347 177.053L747.737 177.333L749.457 177.853L749.717 178.523V179.193L751.237 181.963L751.407 182.553L751.467 183.283L751.197 184.433L751.287 184.813L751.547 185.273L752.367 185.633L752.827 186.383L753.747 186.293L754.287 186.653L754.497 187.063L755.157 186.853L755.587 187.163L755.967 186.853L756.217 186.343L756.967 186.023L758.127 185.973L759.347 186.393L760.067 187.233L760.517 187.363L762.047 186.953L762.677 187.113L763.467 187.623L765.267 187.443L765.497 187.493L765.727 187.793L765.467 188.893L765.567 189.143L766.437 189.473L767.487 188.673L768.037 188.523L768.877 188.563L769.947 190.183L770.117 190.213L770.797 189.613L770.587 188.653L771.397 187.603L771.337 186.763L771.457 186.583L773.807 185.743L775.107 184.923L776.267 183.313L777.347 182.583L777.747 181.943L778.187 181.843L778.637 181.423L778.927 180.903L778.627 180.393L778.737 179.993L782.417 180.003L782.467 180.273L781.727 181.803L781.747 182.293L782.027 182.763L781.457 183.253L780.387 183.853L779.807 183.673L778.887 184.843L778.857 185.673L779.137 186.623L779.577 187.073L780.597 186.903L782.387 187.743L782.437 187.883L782.057 188.263L782.807 188.883L782.497 189.893L782.607 190.563L784.457 191.613L784.607 192.843L784.347 193.203L784.327 193.503L784.897 194.183L785.107 194.903L785.577 195.123L786.247 195.073L786.957 196.293L789.907 196.553L791.437 197.483L791.687 197.863L792.297 200.443V200.933L791.987 200.883L791.457 200.473L790.537 200.503L789.947 199.913L788.847 199.423L785.627 200.913L784.737 200.933L784.017 200.493H783.747L783.227 201.033L782.917 202.393L781.447 203.323L780.997 203.883L780.857 204.153L780.807 204.993L781.067 206.393L782.557 208.283L782.567 208.933L781.557 209.693L781.417 209.933L781.317 210.543L781.757 211.383L781.637 212.263L780.437 213.623L780.127 214.493L779.857 214.703L779.127 214.903L778.887 215.783L778.517 216.223L778.247 217.293L777.337 217.483L775.237 218.713L774.387 218.263L773.937 218.463L772.997 218.523L772.177 219.593L770.987 220.433L770.027 220.423L767.117 220.033L766.167 220.573L765.197 220.323L764.397 220.653L763.717 220.723L761.607 222.453L761.047 223.523L760.957 224.633L759.917 227.273L759.267 228.533L759.187 229.523L759.297 230.663L758.917 231.633L758.837 232.303L758.057 233.843L757.937 234.823L758.927 240.293L759.477 244.373L759.137 246.893L759.847 248.773L760.977 250.383L761.147 251.023L760.827 252.473L761.067 253.333L760.947 255.143L760.827 255.503L760.577 255.693L759.027 255.843L758.617 256.293L758.337 257.853L757.767 259.083L757.707 260.023L756.077 259.863L754.857 260.193L754.297 259.983L753.687 260.383L753.087 259.943L751.757 260.183L751.117 261.513L749.187 262.843L748.787 263.603L748.247 263.863L747.477 263.873L746.957 264.133L746.697 265.343L745.827 265.833L744.927 265.813L743.667 266.613L743.507 266.593L743.267 266.253L741.667 266.403L741.517 266.243L741.587 266.083L742.327 265.683L742.697 264.803L743.277 264.303L742.997 264.043L742.957 263.583L742.457 263.363L742.287 262.643L741.697 261.813L741.337 261.573H740.907L740.317 261.813L738.967 261.793L737.867 262.333L736.987 262.063L736.657 261.533L736.357 261.413L735.257 261.783L734.547 261.593L732.197 261.713L731.547 261.853L730.527 262.353L729.157 262.713L728.767 262.693L727.577 261.833L726.267 261.813L725.147 261.293L723.387 260.863L722.237 260.853L719.887 260.053L719.397 259.763L718.707 258.983L717.507 257.963L716.557 258.233L715.437 256.763L713.367 256.643L712.007 255.353L710.097 255.303L709.647 255.393L709.227 255.683L708.507 260.113L708.147 260.963L707.387 261.353L706.997 263.463L706.497 265.203L704.887 268.793L704.547 270.013L704.057 273.273L703.247 276.183L700.447 281.943L699.917 283.343L699.317 285.583L699.007 290.263L698.397 291.663L697.347 293.523L696.647 295.693L695.197 298.923L694.827 300.003L694.497 301.713L694.547 302.323L692.537 303.043L691.827 302.423L691.587 300.843L692.187 296.643L689.037 293.213L687.517 287.463L681.077 279.913L681.767 279.003L680.917 279.173L680.647 278.873L681.627 278.143L681.987 277.163L681.527 277.183L680.897 278.343L680.217 277.833L679.537 277.803L678.887 277.663L679.617 276.523L679.047 276.513L678.177 277.743L677.547 277.013L676.977 275.583L675.887 276.293L674.967 276.323L673.877 274.663L667.837 274.513L662.187 271.353L655.537 268.433L655.617 266.433L651.467 264.713L642.217 267.943L636.117 259.393L627.467 260.363L626.517 257.923L624.067 257.703L623.097 256.563L620.777 255.053L617.497 252.293L614.367 256.283L611.887 253.673L609.037 256.873L604.017 255.753L603.487 256.733L601.547 257.603L599.257 256.483L598.047 257.233L597.107 259.823L594.217 258.743L592.327 257.343L591.317 255.623L589.577 254.723L591.107 254.143L591.937 252.123L591.837 249.933L593.677 249.643L595.447 250.423L595.237 248.943L594.217 244.543L593.777 244.343L593.377 243.193L594.547 240.603L595.507 236.513L596.467 236.553L596.647 234.153L597.977 234.143L596.817 232.473L600.437 231.153L599.057 230.053L597.097 230.203L594.597 227.923L595.107 226.423L596.817 226.353L597.237 225.323L596.317 225.043L593.277 225.123L593.007 223.843L591.327 223.063L590.607 221.583L592.147 221.113L591.927 219.593L592.937 218.663L593.927 218.583L595.417 219.093L598.997 215.413L598.977 214.173L599.797 210.973L598.997 208.593L591.037 209.903L589.667 207.173L590.117 205.253L589.947 204.103L591.567 203.263L591.967 203.833L593.827 203.043L591.947 201.083L590.377 200.173L590.327 198.293L587.407 195.883L585.767 195.343L585.817 194.343L584.257 192.553L584.547 190.843L589.137 188.633L594.197 186.773L595.927 184.053L596.327 182.483L595.817 181.113L596.267 179.293L595.677 178.413L596.217 176.103L597.987 176.053L598.847 175.453L601.597 174.193L603.127 172.063L605.987 169.683L606.427 167.973L607.717 167.213L608.867 169.233L617.217 172.713L620.367 173.493L623.047 172.263L626.387 166.193L627.717 164.813L627.157 160.853L625.317 160.333L626.017 153.523L621.997 150.853L620.697 150.183L619.117 148.943L618.217 147.583L616.737 147.133L616.207 144.033L613.877 140.663L615.537 139.053L615.987 139.413L618.087 138.293L618.337 137.173L619.527 136.643L619.967 137.653L622.427 136.883L626.407 134.353L627.417 134.703L627.237 133.223L627.537 131.973L626.537 132.143L626.447 130.283L630.337 129.713L630.877 130.363L633.387 127.903L632.867 126.203L635.847 125.443L636.367 122.393L637.827 122.223L641.687 130.353Z"/>
        <path d="M403.547 290.983L440.307 291.563L443.827 297.313L445.557 303.013L448.227 309.813L450.627 320.203L451.737 321.783L453.227 329.973L454.977 341.833L454.247 342.323L453.897 344.633L452.547 346.743L452.227 349.833L449.787 355.923L449.837 356.483L447.217 360.233L449.257 360.953L448.717 361.793L449.557 364.393L450.607 363.933L451.047 363.963L450.827 364.933L452.177 364.723L454.237 366.223L454.837 364.743L455.277 364.783L455.657 366.353L457.407 366.513L457.887 367.213L458.577 366.943L459.057 367.543L458.707 368.713L459.697 369.673L460.417 369.193L460.917 369.573L460.217 370.813L460.827 371.303L461.457 371.583L460.957 372.083L461.617 373.013L461.357 375.173L461.417 376.473L461.797 376.943L461.317 378.203L463.357 379.463L464.787 379.383L465.007 380.263L466.157 380.693L466.267 381.553L466.897 381.723L467.137 382.383L467.697 383.173L468.757 383.373L470.077 385.683L471.627 385.273L471.977 385.903L471.627 386.893L472.467 386.933L472.477 387.543L473.567 388.533L473.317 389.033L473.297 389.683L473.477 390.123L473.387 390.503L473.637 390.713L474.627 390.633L473.847 391.613L472.677 392.323L472.387 392.333L471.837 391.913L471.197 392.513L470.847 393.093L469.537 394.533L469.477 395.063L468.567 397.353L468.077 397.453L467.567 396.983L467.247 396.893L467.227 395.953L466.997 395.573L465.937 394.983L464.807 393.993L464.367 393.983L464.207 394.173L463.987 395.223L463.447 395.873L462.657 396.483L462.817 398.013L461.777 398.683L461.057 398.913L460.237 399.833L459.497 401.423L457.597 402.493L457.157 403.523H456.867L456.657 402.883L456.207 402.943L455.407 404.743L454.177 405.243L453.677 404.813L453.157 404.673L452.457 405.113L451.137 405.253L450.417 405.883L449.047 406.253L447.467 407.823L446.987 408.823L445.867 409.153L445.167 409.753L444.857 410.293L445.027 410.663L445.517 410.983L445.377 411.413L445.207 411.493L444.277 411.343L443.157 411.613L442.307 411.293L441.067 411.443L440.587 411.733L440.127 412.733L439.197 413.263L438.717 414.463L438.437 414.653L437.857 414.333L437.637 414.403L436.807 415.693L436.727 416.833L436.057 417.473L435.927 418.233H435.477L435.197 418.423L434.327 419.363L432.487 422.033L432.177 422.733L432.047 423.503L431.487 424.013L430.717 424.313L430.117 424.813L429.897 424.133L430.647 423.623L430.097 423.373L429.757 423.533L429.477 423.423L429.267 422.783L428.277 423.403L428.147 423.153L426.077 423.023L426.087 423.563L427.607 423.663L427.977 424.243L427.617 424.623L428.027 425.683L427.667 428.803L429.047 430.713L429.517 432.093L430.527 432.633L430.887 433.513L429.077 434.233L428.067 434.163L427.727 434.633L425.677 434.033L425.907 433.553L425.107 432.893L424.317 433.103L422.597 431.633L421.007 431.073L419.497 429.383L417.077 427.953L416.047 427.673L415.447 426.833L415.757 425.873L417.467 425.813L417.427 423.623L418.047 423.003L417.467 421.553L418.057 420.933L419.097 420.713L418.767 420.513L418.517 420.623L417.937 420.083L416.657 420.913L416.307 420.413L415.687 420.963L414.297 419.663L413.437 418.623L413.067 418.523L412.477 417.983L406.007 417.783L404.957 418.043L404.587 417.993L404.227 417.753L390.547 416.733L389.087 400.073L378.957 398.843L379.047 390.963L379.437 390.503L379.477 387.733L380.837 388.323L380.867 387.933L382.557 388.343L390.407 380.203L393.137 381.883L398.607 376.363L403.467 372.713L408.657 370.793L415.107 367.573L417.007 366.353L417.087 365.473L415.707 365.843L414.957 364.043L415.297 362.623L414.167 362.673L414.377 361.473L413.317 362.073L413.627 363.753L412.797 364.263L412.217 361.693L414.187 361.123L414.587 358.933L414.427 358.043L416.277 356.143L416.267 351.923L418.187 353.593L419.017 353.193L419.237 350.313L418.667 348.833L418.257 348.253L419.257 347.193L420.437 346.713L421.187 347.313L422.557 345.953L417.217 342.143L414.987 339.433L414.937 338.523L412.707 337.273L411.527 337.653L409.457 335.633L409.687 333.953L410.077 333.403L409.957 314.303L406.867 312.983L403.177 309.923L404.407 305.383L404.597 302.513L405.197 300.463L406.377 298.793L406.937 297.553L406.347 295.663L403.277 293.293L403.547 290.983Z"/>
        <path d="M85.6169 122.583L87.8869 122.653L88.1969 122.433L88.9569 122.983L90.0469 122.723L90.1869 122.863L90.6369 122.763L90.7469 122.903L91.1469 122.873L91.1669 122.663L92.9369 122.303L93.4069 122.693L93.4869 123.133L94.7169 123.433L94.8569 124.663L94.8269 125.823L94.5869 126.153L92.9269 126.243L92.5569 126.303L92.4569 126.473L92.5369 126.893L92.9669 127.183L93.1169 127.483L93.1069 128.203L93.8469 128.513L95.3169 128.453L96.0869 128.753L97.8369 127.873L98.3269 127.183L98.3169 126.463L98.7469 126.313L99.1369 127.153L99.6869 127.043L99.9369 127.143L100.297 127.753L99.7569 128.823L99.9469 129.133L100.357 129.183L101.567 128.553L102.127 128.003L103.097 127.633L103.187 127.493L102.467 125.773L102.437 125.383L102.807 124.503L104.397 122.503L106.197 122.623L107.697 123.473L108.447 123.243L109.257 123.343L109.907 122.973L110.287 122.413L110.537 121.373L111.187 121.243L112.237 121.433L113.057 120.843L113.017 120.153L113.527 119.913L114.037 120.113L114.197 120.303L114.597 123.323L115.737 124.833L116.277 126.113L116.947 126.743L117.137 127.933L117.917 128.463L117.927 128.773L117.757 128.903L117.847 129.313L118.237 129.463L118.267 129.323L118.857 128.993L118.827 129.533L119.447 129.583L119.247 129.133L119.427 129.033L119.667 129.283L119.817 129.243L119.877 128.483L120.057 128.453L120.267 129.253L120.617 129.473L120.477 128.853L121.417 128.563L121.757 128.673L121.657 127.993L122.117 128.243V127.723L122.277 127.413L122.417 127.643L122.377 127.943L122.577 127.793L122.727 128.053L122.997 127.913L123.047 128.263L123.537 128.053L124.067 128.313L124.587 128.113L124.567 128.303L124.017 128.633L124.117 128.983H124.287L124.537 128.713L124.787 128.873L124.927 128.263L125.237 128.273L125.197 128.663L125.457 128.883L125.737 129.453L125.887 129.333L125.767 128.943L126.297 129.153L126.217 128.673L126.767 128.933L127.747 128.513L128.097 128.173L128.317 128.153L128.487 128.423L128.857 128.563L129.757 128.473L129.767 128.173L129.377 127.743L129.447 127.413L129.967 127.553L130.347 127.083L130.507 127.193L130.277 127.673L130.387 127.813L130.817 127.963L131.457 127.833L131.717 127.953L132.037 128.613L132.287 128.623L132.507 128.133L132.997 127.853L133.617 127.663L133.917 127.773L134.287 128.333L134.797 128.443L135.237 128.863L135.247 129.303L136.127 129.733L136.227 130.083L136.917 130.373L137.787 130.423L137.897 130.883L138.307 131.353L138.877 131.653L138.987 132.023L138.827 132.233L138.267 132.313L138.797 132.983L138.667 133.603L138.437 133.733L138.367 134.213L138.497 134.633L139.257 135.343L139.427 135.833L139.357 136.233L139.707 136.673L140.127 136.543L140.977 136.963L141.117 137.393L141.407 137.193L141.797 137.253L142.267 137.083L142.837 137.713L143.067 137.763L143.757 137.633L143.957 137.433L145.297 138.083L145.537 138.393L146.617 138.653L146.987 139.013L146.917 139.333L147.117 139.503L148.297 139.883L148.687 140.263L148.947 140.933L148.657 141.683L148.717 142.043L148.807 142.073L148.957 141.693L149.117 141.623L149.667 142.433L149.697 142.713L149.357 142.813L149.187 143.043L149.507 143.333L149.487 143.773L149.977 143.963L149.877 144.483L150.587 145.043L151.277 146.573L151.737 147.203L152.087 147.393L154.567 147.593L155.917 148.323L155.977 148.883L155.047 150.453L154.747 151.743L154.977 152.853L154.237 154.323L154.177 155.193L155.827 157.743L156.427 157.703L156.937 157.393L157.237 157.823L154.787 160.743L155.117 161.613L153.047 163.813L154.507 165.843L154.147 167.953L154.217 170.523L155.137 170.803L155.197 171.573L156.507 172.193L156.757 173.713L155.887 175.473L155.957 176.363L154.087 179.653L155.227 181.043H153.077L152.667 182.113L151.317 183.813L151.767 184.643L149.857 185.773L148.197 185.473L145.797 185.523L145.447 186.973L143.547 186.963L142.047 188.313L141.257 190.333L140.047 189.733L140.727 191.293L139.447 195.663L139.627 198.433L138.987 199.403L135.227 202.593L135.737 203.783L132.727 204.733L125.977 204.723L124.777 204.143L123.627 206.843L121.897 206.093L122.197 213.233L119.857 213.333L118.497 219.053L118.937 220.493L117.567 221.323L115.477 221.373L111.207 218.953L110.357 219.063L109.667 220.283L103.437 218.863L103.587 216.463L104.257 215.993L103.737 214.933L95.5169 213.513L93.2069 214.573L89.1869 214.853L88.0969 218.243L86.3069 219.343L85.5069 218.943L83.6969 220.673L82.4769 220.703L71.7969 227.873L67.8569 231.913L64.5869 231.833L63.5269 232.703L57.4769 232.373L57.6269 235.373L48.1169 231.603L42.7269 230.093L25.5869 228.183L15.6969 226.633L13.4169 226.753L10.4769 225.773L8.73694 223.713L8.82694 223.383L8.69694 223.283L7.75694 223.303L6.38694 222.993L3.90694 221.803L0.876936 220.653L0.296936 220.213L2.41694 214.263L3.73694 211.173L4.70694 208.293L5.85694 205.693L8.94694 203.773L10.2269 202.093L10.9069 200.353L11.1769 199.003L11.0269 198.343L10.5769 197.703L7.52694 194.973L5.93694 194.033L5.88694 193.643L6.31694 191.073L6.65694 187.363L7.42694 185.833L7.71694 183.703L7.70694 181.713L8.07694 178.913L8.35694 178.263L8.56694 178.033L9.63694 178.013L12.2669 177.003L13.2969 176.313L14.5069 175.103L15.3169 173.863L16.6169 171.253L16.7369 170.913L16.4869 170.103L15.2169 168.083L16.4969 166.773L16.4169 166.413L16.0269 166.243L16.0169 164.693L16.3569 164.063L17.8569 163.953L18.0669 163.823L18.0869 162.673L18.4569 162.443L18.7669 161.513L20.0369 160.293L20.8569 160.093L22.2569 160.833L22.9969 161.783L24.5969 162.633L24.4269 162.973L25.0669 163.823L25.2569 163.983L25.9969 164.083L26.0669 164.583L26.6569 165.423L27.6869 166.393L28.5069 167.493L28.7569 168.313L29.2769 168.743L29.3669 169.593L30.0669 170.193L30.3769 170.763L31.2069 171.023L31.4269 171.333L32.0669 174.263L32.4369 174.633L32.4969 175.133L32.7169 175.503L33.2369 175.883L33.7669 176.813L33.9169 177.513L33.7869 177.903L34.0169 178.073L34.8469 178.233L35.2669 177.963L35.6069 178.043L35.8669 178.553L36.1569 178.673L36.3069 179.233L36.8769 178.973L37.1969 179.293L37.2169 179.643L37.7969 179.883L37.9569 179.743L37.9669 178.953L43.8169 176.293L46.2969 173.863L46.5869 173.383L46.1469 172.113L46.0869 171.503L44.8669 171.263L44.3369 171.013L44.2069 170.753L44.2569 170.213L44.4769 169.933L44.6269 169.293L44.6769 168.653L44.3969 167.883L43.4669 166.363L43.1469 165.333L42.8569 162.713L41.8969 157.673L42.1769 156.743L41.8869 155.963L40.6269 155.263L40.4069 154.843L40.3869 154.433L40.7769 153.963L41.1969 153.843L41.8369 153.993L43.1469 155.203L44.6469 155.323L45.3069 155.883L45.5569 155.903L46.3969 154.913L47.7669 154.123L48.6269 152.853L50.7669 150.313L51.7469 149.763L53.3969 149.393L54.2669 148.643L55.4469 148.543L56.9369 148.013L57.1369 147.423L56.9569 146.853L56.1369 144.953L55.8069 144.413L55.2569 143.983L55.2369 143.733L56.3069 141.943L56.1669 140.683L56.4169 140.433L57.0169 140.283L57.1169 139.673L57.8669 139.843L58.7369 140.333L59.1469 140.313L60.4869 139.833L62.4469 140.193L63.2369 140.133L65.2169 138.363L65.7969 137.603L67.0869 136.443L71.3869 134.823L72.6369 134.593L75.4969 133.163L75.5869 133.043L75.2269 132.783L74.8369 131.813L75.5869 131.043L75.5669 130.733L75.1469 130.283L77.2969 130.093L77.3569 128.993H78.2869L78.3369 128.533L77.8769 127.483L78.0669 125.933L78.3369 125.053L78.6269 124.983L78.8169 125.183L78.9869 125.043L79.3769 123.773L80.4569 123.783L80.8969 124.013L82.2669 124.213L82.2869 124.803L81.3369 125.733L81.2769 125.983L83.0069 125.783L83.1669 125.463L83.4369 125.343L83.7469 123.183L83.0369 122.793L82.6769 122.373L82.5469 121.173L82.7769 119.953L83.3269 119.903L85.0969 120.743L85.6169 122.583Z"/>
        <path d="M537.587 291.033L536.027 294.443L534.177 297.563L535.017 307.763L536.077 310.553L530.207 310.123L530.557 315.233L536.007 315.373L536.167 318.713L536.927 319.623L537.307 320.813L543.547 325.183L545.407 328.393L544.517 331.673L545.147 332.663L548.857 336.213L553.197 336.683L553.527 336.723L555.387 338.433L556.597 338.603L557.697 340.093L559.717 341.473L559.807 344.813L559.367 345.973L558.507 346.963L558.957 348.893L558.497 350.143L557.757 350.493L553.507 354.533L553.517 356.253L556.797 357.403L557.457 356.953L558.557 357.093L558.267 358.023L561.177 357.663L561.877 358.843L559.297 361.973L559.077 364.233L559.817 364.673L559.547 365.823L560.297 366.153L560.757 368.053L562.637 368.443L566.297 370.173L565.777 371.233L564.657 371.573L564.877 372.003L566.757 371.793L567.837 372.473L568.847 372.033L569.047 372.973L569.197 372.953L568.717 373.793L568.367 375.473L568.127 375.893L567.307 376.513L565.317 375.883L562.927 375.773L562.167 375.923L561.707 375.853L559.657 374.953L558.737 375.083L557.917 375.443L557.327 375.343L557.157 375.163L556.457 375.123L555.907 374.363L555.037 373.993L554.937 373.733L554.067 373.303L553.507 372.753L552.707 372.653L552.127 372.213L551.957 372.313L551.877 371.833L551.697 371.613L550.257 371.003L549.877 371.303H548.377L547.717 370.413L547.477 369.573L546.927 369.083L546.147 368.693L545.897 367.933L545.477 367.733L544.677 367.013L544.367 367.093L543.977 366.843L543.797 366.953L543.427 366.283L542.487 366.193L542.207 365.853L541.887 366.033L541.497 365.823L540.647 365.723L540.487 365.523L539.987 365.433L539.717 364.853L537.777 364.983L537.297 364.863L537.027 365.023L537.447 365.893L537.377 366.103L537.077 366.263L536.747 366.273L535.937 366.723L535.017 366.973L534.067 366.683L533.677 366.233L533.117 366.073L532.167 367.623L531.887 368.583L530.507 368.193L529.707 368.283L526.987 369.713L525.687 370.253L525.437 370.553L525.357 370.723L525.547 371.073L525.497 371.393L525.107 372.233L524.587 372.903L524.307 373.613L524.377 376.883L523.567 378.423L522.827 381.003L522.787 382.473L523.117 384.053L524.577 385.933L524.517 386.513L524.137 386.703L523.827 386.743L523.367 386.423L521.317 386.233L520.617 385.653L520.627 384.413L520.387 384.163L519.267 384.103L516.677 383.393L515.287 383.533L514.737 383.393L514.127 383.603L513.667 383.433L512.877 383.403L512.267 382.943L511.487 382.813L510.997 382.543L509.647 380.673L508.147 380.203L506.977 379.553L506.607 379.493L505.867 379.673L504.887 379.463L500.677 377.513L499.707 377.483L498.907 377.743L498.427 377.633L498.017 378.023L497.537 378.113L496.927 377.903L496.307 377.253L494.907 376.853L494.307 376.473L494.017 376.063L492.557 375.573L491.677 375.613L490.557 376.233L488.907 376.703L487.977 377.363L486.877 377.103L486.607 376.723L485.847 376.193L485.497 376.183L484.917 376.453L483.377 376.513L482.907 377.043L481.177 376.953L481.027 377.153L481.047 377.613L480.217 379.253L479.187 379.803L479.237 380.803L479.007 381.453L476.597 381.733L475.987 382.273L475.937 382.513L476.297 383.063L477.577 384.003L477.597 384.503L477.287 385.163L476.947 385.273L476.507 385.143L475.697 384.453L475.377 384.723L474.967 385.373L474.847 386.243L474.537 387.103L474.147 387.703L473.857 387.863L473.567 388.533L472.477 387.543L472.467 386.933L471.627 386.893L471.977 385.903L471.627 385.273L470.077 385.683L468.757 383.373L467.697 383.173L467.137 382.383L466.897 381.723L466.267 381.553L466.157 380.693L465.007 380.263L464.787 379.383L463.357 379.463L461.317 378.203L461.797 376.943L461.417 376.473L461.357 375.173L461.617 373.013L460.957 372.083L461.457 371.583L460.827 371.303L460.217 370.813L460.917 369.573L460.417 369.193L459.697 369.673L458.707 368.713L459.057 367.543L458.577 366.943L457.887 367.213L457.407 366.513L455.657 366.353L455.277 364.783L454.837 364.743L454.237 366.223L452.177 364.723L450.827 364.933L451.047 363.963L450.607 363.933L449.557 364.393L448.717 361.793L449.257 360.953L447.217 360.233L449.837 356.483L449.787 355.923L452.227 349.833L452.547 346.743L453.897 344.633L454.247 342.323L454.977 341.833L453.227 329.973L451.737 321.783L450.627 320.203L448.227 309.813L445.557 303.013L443.827 297.313L440.307 291.563L467.837 291.503L483.417 291.103L486.857 291.353L505.467 290.663L537.587 291.033Z"/>
        <path d="M277.797 268.863L277.477 270.253V271.853L277.367 273.563L279.287 275.913L281.957 275.803L284.947 276.333L286.017 275.473L286.767 275.583L286.827 277.263L286.507 280.573L285.287 282.653L283.387 283.783L281.577 284.463L280.177 285.733L278.137 286.093L276.327 287.773L276.007 288.993L275.327 289.943L273.787 290.263L272.567 290.623L272.337 291.593L271.927 292.133L271.657 293.673L271.387 294.983L270.387 295.663L270.477 296.523L270.527 297.613L271.477 298.653L271.887 300.243L272.207 301.553L272.117 303.183L271.387 304.863L271.157 305.863L272.067 306.543L272.517 308.173L272.567 311.843L272.067 312.973V314.153L272.567 315.833L273.427 316.563L273.837 317.833L275.017 317.923L275.787 318.873L276.607 321.543L277.057 323.623L276.787 325.573L276.107 327.523L275.517 327.843L275.067 328.293L274.547 328.703L267.387 323.533H267.367V323.523L250.707 311.493L250.687 311.503L250.657 310.733L250.337 309.873L249.747 309.283L249.017 308.833L248.787 308.063L248.607 307.243L248.017 306.023L248.517 305.393L248.607 304.393L248.427 302.853L248.657 301.943L248.247 301.173H247.337L246.707 300.943L246.347 300.533L245.667 300.173L245.307 300.623L244.987 301.353L244.307 301.853L243.757 302.163L242.947 302.133L242.407 301.863H241.777L241.547 302.313V303.263L241.137 303.533L241.037 304.523L236.227 301.053L234.437 301.743L234.487 300.903L235.127 299.833L235.987 299.403L236.097 297.483L236.847 295.343L237.807 293.313L238.657 292.133L239.617 291.493L241.647 291.063L243.277 290.193L243.307 290.183V290.273L243.667 290.333L244.207 290.783L245.387 290.963L246.607 290.873L247.017 290.513L247.647 289.833L248.507 289.333L249.457 289.833L250.277 290.423L249.917 291.243L249.097 292.153L248.507 293.013L247.967 293.873L247.737 294.963L247.687 295.913L247.827 296.643H248.867L249.957 296.233L251.047 296.143L251.907 296.463L252.627 295.873L253.037 294.783L253.447 293.473L254.127 293.833L254.757 293.513L255.297 292.603L255.527 291.243L255.347 289.383L255.117 288.613L255.077 287.793L255.437 286.483L254.937 285.353L253.487 282.953L252.807 281.953L252.757 280.863L253.387 280.723L255.287 280.673L256.647 280.723L257.827 280.953L258.597 281.903L258.547 283.403L258.687 284.623L259.097 285.303L258.957 286.433L258.727 287.203L259.357 287.563L260.717 287.473L261.487 286.703L262.487 285.843L263.347 285.343L264.887 285.523L266.927 285.933L267.967 286.163L269.007 286.753L270.137 287.973L271.357 288.383L273.937 287.883H275.027L275.977 287.253L277.107 286.573L277.517 285.123L277.557 283.133L276.967 282.003L276.017 280.553L275.877 279.693L275.827 278.783L274.967 278.963L274.237 279.873L272.737 280.913L271.557 280.503L270.697 279.823L270.157 278.783H269.027L267.757 278.963L266.627 279.283L265.717 279.733H264.627L263.267 279.143L262.817 278.463L262.137 276.963L261.557 276.243L261.677 274.243L262.477 273.173L266.887 270.233H268.227L269.167 271.173L269.697 272.243L269.567 274.913L269.837 275.853L270.557 275.343V272.243L272.057 272.673L273.337 273.313L274.407 272.783L275.157 271.923L275.907 271.493V270.253L274.627 269.293L273.667 269.183L272.597 268.653L272.707 267.693L274.417 267.583H275.377L276.337 268.433L277.797 268.863V268.863ZM262.267 300.753L263.227 300.133L264.187 299.723L265.017 299.243H270.187L269.907 298.763L267.907 298.693L266.047 298.353L265.567 297.323L263.087 297.043L261.437 297.183L259.857 297.253L258.207 297.663L258.137 299.113L258.067 301.183H260.137L262.267 300.753Z"/>
        
        <clipPath id="clip0">
        <rect width="792.547" height="434.922" fill="white"/>
        </clipPath>
    </symbol>
</svg>